<mxfile host="app.diagrams.net" modified="2023-06-28T11:31:07.866Z" agent="Mozilla/5.0 (Windows NT 10.0; Win64; x64) AppleWebKit/537.36 (KHTML, like Gecko) Chrome/114.0.0.0 Safari/537.36" etag="d9E5FofTVu6Ez06xiJf8" version="21.5.0" type="github" pages="6">
  <diagram id="mi3WjdDZGtC-VfzJtJH9" name="凡例">
    <mxGraphModel dx="1607" dy="2049" grid="1" gridSize="10" guides="1" tooltips="1" connect="1" arrows="1" fold="1" page="1" pageScale="1" pageWidth="827" pageHeight="1169" math="0" shadow="0">
      <root>
        <mxCell id="0" />
        <mxCell id="1" parent="0" />
        <mxCell id="95fKoSYgu_-Y0NN4SfjF-1" value="&lt;p style=&quot;line-height: 120%;&quot;&gt;&lt;br&gt;&lt;/p&gt;" style="whiteSpace=wrap;html=1;fillColor=#CCE5FF;fontFamily=メイリオ;" parent="1" vertex="1">
          <mxGeometry x="78" y="-1169" width="670" height="812" as="geometry" />
        </mxCell>
        <mxCell id="95fKoSYgu_-Y0NN4SfjF-3" value="&lt;font color=&quot;#ffffff&quot; style=&quot;font-size: 36px; background-color: rgb(77, 77, 77);&quot;&gt;凡例&lt;/font&gt;" style="text;strokeColor=none;align=center;fillColor=none;html=1;verticalAlign=middle;whiteSpace=wrap;rounded=0;fontStyle=1;horizontal=1;fontFamily=メイリオ;" parent="1" vertex="1">
          <mxGeometry x="330" y="-1123" width="140" height="20" as="geometry" />
        </mxCell>
        <mxCell id="95fKoSYgu_-Y0NN4SfjF-5" value="" style="ellipse;whiteSpace=wrap;html=1;fontFamily=メイリオ;" parent="1" vertex="1">
          <mxGeometry x="210" y="-1053" width="120" height="80" as="geometry" />
        </mxCell>
        <mxCell id="UYdisq44HRvo9MOztmVh-1" value="&lt;font style=&quot;font-size: 18px;&quot;&gt;開始・終了&lt;/font&gt;" style="text;strokeColor=none;align=center;fillColor=none;html=1;verticalAlign=middle;whiteSpace=wrap;rounded=0;fontFamily=メイリオ;" vertex="1" parent="1">
          <mxGeometry x="470" y="-1028" width="120" height="30" as="geometry" />
        </mxCell>
        <mxCell id="UYdisq44HRvo9MOztmVh-2" value="" style="rounded=0;whiteSpace=wrap;html=1;fillColor=#CCCCCC;fontFamily=メイリオ;" vertex="1" parent="1">
          <mxGeometry x="210" y="-943" width="120" height="60" as="geometry" />
        </mxCell>
        <mxCell id="UYdisq44HRvo9MOztmVh-3" value="&lt;font style=&quot;font-size: 18px;&quot;&gt;処理&lt;/font&gt;" style="text;strokeColor=none;align=center;fillColor=none;html=1;verticalAlign=middle;whiteSpace=wrap;rounded=0;fontFamily=メイリオ;" vertex="1" parent="1">
          <mxGeometry x="470" y="-928" width="120" height="30" as="geometry" />
        </mxCell>
        <mxCell id="UYdisq44HRvo9MOztmVh-7" value="" style="rhombus;whiteSpace=wrap;html=1;fillColor=#FFFFCC;fontFamily=メイリオ;" vertex="1" parent="1">
          <mxGeometry x="216" y="-853" width="114" height="80" as="geometry" />
        </mxCell>
        <mxCell id="UYdisq44HRvo9MOztmVh-8" value="&lt;span style=&quot;font-size: 18px;&quot;&gt;判断&lt;/span&gt;" style="text;strokeColor=none;align=center;fillColor=none;html=1;verticalAlign=middle;whiteSpace=wrap;rounded=0;fontFamily=メイリオ;" vertex="1" parent="1">
          <mxGeometry x="470" y="-828" width="120" height="30" as="geometry" />
        </mxCell>
        <mxCell id="6vsag00mPE-j-pG3ZVVu-1" value="" style="shape=cylinder3;whiteSpace=wrap;html=1;boundedLbl=1;backgroundOutline=1;size=15;fillColor=#007FFF;fontFamily=メイリオ;" vertex="1" parent="1">
          <mxGeometry x="213" y="-733" width="120" height="70" as="geometry" />
        </mxCell>
        <mxCell id="6vsag00mPE-j-pG3ZVVu-2" value="&lt;span style=&quot;font-size: 18px;&quot;&gt;Sales Cloudオブジェクト（標準）&lt;br&gt;&lt;/span&gt;" style="text;strokeColor=none;align=center;fillColor=none;html=1;verticalAlign=middle;whiteSpace=wrap;rounded=0;fontFamily=メイリオ;" vertex="1" parent="1">
          <mxGeometry x="417" y="-713" width="299" height="30" as="geometry" />
        </mxCell>
        <mxCell id="XNMOZ26pVQvT2_XfTCiq-1" value="" style="shape=callout;whiteSpace=wrap;html=1;perimeter=calloutPerimeter;base=20;fontFamily=メイリオ;" vertex="1" parent="1">
          <mxGeometry x="216" y="-543" width="120" height="60" as="geometry" />
        </mxCell>
        <mxCell id="XNMOZ26pVQvT2_XfTCiq-2" value="&lt;span style=&quot;font-size: 18px;&quot;&gt;データ&lt;/span&gt;" style="text;strokeColor=none;align=center;fillColor=none;html=1;verticalAlign=middle;whiteSpace=wrap;rounded=0;fontFamily=メイリオ;" vertex="1" parent="1">
          <mxGeometry x="417" y="-543" width="226" height="30" as="geometry" />
        </mxCell>
        <mxCell id="Jw4MGq_xxbuSXlyFqfY4-1" value="" style="shape=cylinder3;whiteSpace=wrap;html=1;boundedLbl=1;backgroundOutline=1;size=15;fillColor=#FFB366;fontFamily=メイリオ;" vertex="1" parent="1">
          <mxGeometry x="214" y="-643" width="120" height="70" as="geometry" />
        </mxCell>
        <mxCell id="Jw4MGq_xxbuSXlyFqfY4-2" value="&lt;span style=&quot;font-size: 18px;&quot;&gt;Sales Cloudオブジェクト（カスタム）&lt;br&gt;&lt;/span&gt;" style="text;strokeColor=none;align=center;fillColor=none;html=1;verticalAlign=middle;whiteSpace=wrap;rounded=0;fontFamily=メイリオ;" vertex="1" parent="1">
          <mxGeometry x="397" y="-630" width="319" height="30" as="geometry" />
        </mxCell>
        <mxCell id="EYXO-JKv2oKsjgmePvWF-2" value="" style="shape=offPageConnector;whiteSpace=wrap;html=1;size=0.5285714285714286;fillColor=#E5CCFF;fontFamily=メイリオ;" vertex="1" parent="1">
          <mxGeometry x="216" y="-450" width="120" height="70" as="geometry" />
        </mxCell>
        <mxCell id="EYXO-JKv2oKsjgmePvWF-3" value="&lt;span style=&quot;font-size: 18px;&quot;&gt;接続&lt;/span&gt;" style="text;strokeColor=none;align=center;fillColor=none;html=1;verticalAlign=middle;whiteSpace=wrap;rounded=0;fontFamily=メイリオ;" vertex="1" parent="1">
          <mxGeometry x="417" y="-430" width="226" height="30" as="geometry" />
        </mxCell>
      </root>
    </mxGraphModel>
  </diagram>
  <diagram name="アタックリスト作成" id="6XdwqxCeYwe2rvfDVIGw">
    <mxGraphModel dx="1360" dy="1826" grid="1" gridSize="10" guides="1" tooltips="1" connect="1" arrows="1" fold="1" page="1" pageScale="1" pageWidth="827" pageHeight="1169" math="0" shadow="0">
      <root>
        <mxCell id="0" />
        <mxCell id="1" parent="0" />
        <mxCell id="608KYR4JvQiETF1U95zd-5" value="1. アタックリスト作成" style="swimlane;childLayout=stackLayout;resizeParent=1;resizeParentMax=0;startSize=20;html=1;fontFamily=メイリオ;" parent="1" vertex="1">
          <mxGeometry x="99" y="-1160" width="630" height="710" as="geometry" />
        </mxCell>
        <mxCell id="608KYR4JvQiETF1U95zd-6" value="顧客" style="swimlane;startSize=40;html=1;fontFamily=メイリオ;" parent="608KYR4JvQiETF1U95zd-5" vertex="1">
          <mxGeometry y="20" width="120" height="690" as="geometry" />
        </mxCell>
        <mxCell id="608KYR4JvQiETF1U95zd-7" value="営業本部&lt;br&gt;（事業会社部・SIer部）" style="swimlane;startSize=40;html=1;fontFamily=メイリオ;" parent="608KYR4JvQiETF1U95zd-5" vertex="1">
          <mxGeometry x="120" y="20" width="510" height="690" as="geometry" />
        </mxCell>
        <mxCell id="kXIwymxZ-uPz5wmt4d56-1" value="&lt;font face=&quot;メイリオ&quot;&gt;開始&lt;/font&gt;" style="ellipse;whiteSpace=wrap;html=1;" vertex="1" parent="608KYR4JvQiETF1U95zd-7">
          <mxGeometry x="265" y="50" width="110" height="60" as="geometry" />
        </mxCell>
        <mxCell id="zUYAqePIwqvD1rjFFIvs-3" value="問い合わせ" style="rounded=0;whiteSpace=wrap;html=1;fillColor=#E6E6E6;fontFamily=メイリオ;" parent="1" vertex="1">
          <mxGeometry x="109" y="-977.5" width="100" height="50" as="geometry" />
        </mxCell>
        <mxCell id="76PsD19tWAgGo87m4cR1-3" style="edgeStyle=orthogonalEdgeStyle;rounded=0;orthogonalLoop=1;jettySize=auto;html=1;exitX=0.5;exitY=1;exitDx=0;exitDy=0;entryX=0.5;entryY=0;entryDx=0;entryDy=0;fontFamily=メイリオ;" edge="1" parent="1" source="608KYR4JvQiETF1U95zd-12" target="DLMjE2xzAu9vAeAxNtfu-1">
          <mxGeometry relative="1" as="geometry">
            <mxPoint x="440" y="-709.9999999999999" as="targetPoint" />
            <Array as="points">
              <mxPoint x="304" y="-790" />
              <mxPoint x="439" y="-790" />
            </Array>
          </mxGeometry>
        </mxCell>
        <mxCell id="608KYR4JvQiETF1U95zd-12" value="問い合わせ対応" style="rounded=0;whiteSpace=wrap;html=1;fillColor=#E6E6E6;fontFamily=メイリオ;" parent="1" vertex="1">
          <mxGeometry x="249" y="-892.5" width="110" height="50" as="geometry" />
        </mxCell>
        <mxCell id="608KYR4JvQiETF1U95zd-16" value="&lt;font color=&quot;#ffffff&quot;&gt;&lt;span style=&quot;font-size: 18px;&quot;&gt;&lt;b&gt;見込み客&lt;/b&gt;&lt;/span&gt;&lt;/font&gt;" style="shape=cylinder3;whiteSpace=wrap;html=1;boundedLbl=1;backgroundOutline=1;size=15;fillColor=#007FFF;fontFamily=メイリオ;" parent="1" vertex="1">
          <mxGeometry x="244" y="-662.5" width="120" height="70" as="geometry" />
        </mxCell>
        <mxCell id="608KYR4JvQiETF1U95zd-19" value="終了" style="ellipse;whiteSpace=wrap;html=1;fontFamily=メイリオ;" parent="1" vertex="1">
          <mxGeometry x="389" y="-592.5" width="100" height="50" as="geometry" />
        </mxCell>
        <mxCell id="76PsD19tWAgGo87m4cR1-2" style="edgeStyle=orthogonalEdgeStyle;rounded=0;orthogonalLoop=1;jettySize=auto;html=1;exitX=0.5;exitY=1;exitDx=0;exitDy=0;entryX=0.5;entryY=0;entryDx=0;entryDy=0;fontFamily=メイリオ;" edge="1" parent="1" source="zUYAqePIwqvD1rjFFIvs-5" target="DLMjE2xzAu9vAeAxNtfu-1">
          <mxGeometry relative="1" as="geometry">
            <Array as="points">
              <mxPoint x="539" y="-790" />
              <mxPoint x="439" y="-790" />
            </Array>
          </mxGeometry>
        </mxCell>
        <mxCell id="zUYAqePIwqvD1rjFFIvs-5" value="リード選定" style="rounded=0;whiteSpace=wrap;html=1;fillColor=#E6E6E6;fontFamily=メイリオ;" parent="1" vertex="1">
          <mxGeometry x="489" y="-972.5" width="100" height="50" as="geometry" />
        </mxCell>
        <mxCell id="DLMjE2xzAu9vAeAxNtfu-2" style="edgeStyle=orthogonalEdgeStyle;rounded=0;orthogonalLoop=1;jettySize=auto;html=1;exitX=0;exitY=0.5;exitDx=0;exitDy=0;entryX=0.5;entryY=0;entryDx=0;entryDy=0;entryPerimeter=0;dashed=1;fontFamily=メイリオ;" edge="1" parent="1" source="DLMjE2xzAu9vAeAxNtfu-1" target="608KYR4JvQiETF1U95zd-16">
          <mxGeometry relative="1" as="geometry" />
        </mxCell>
        <mxCell id="DLMjE2xzAu9vAeAxNtfu-3" style="edgeStyle=orthogonalEdgeStyle;rounded=0;orthogonalLoop=1;jettySize=auto;html=1;exitX=0.5;exitY=1;exitDx=0;exitDy=0;entryX=0.5;entryY=0;entryDx=0;entryDy=0;fontFamily=メイリオ;" edge="1" parent="1" source="DLMjE2xzAu9vAeAxNtfu-1" target="608KYR4JvQiETF1U95zd-19">
          <mxGeometry relative="1" as="geometry" />
        </mxCell>
        <mxCell id="DLMjE2xzAu9vAeAxNtfu-1" value="アタックリスト&lt;br&gt;作成" style="rounded=0;whiteSpace=wrap;html=1;fillColor=#E6E6E6;fontFamily=メイリオ;" vertex="1" parent="1">
          <mxGeometry x="389" y="-712.5" width="100" height="50" as="geometry" />
        </mxCell>
        <mxCell id="Phdh-2RtE9i5l27z3xSZ-4" value="&lt;div style=&quot;text-align: left;&quot;&gt;&lt;span style=&quot;background-color: initial;&quot;&gt;【会社情報】&lt;/span&gt;&lt;/div&gt;&lt;div style=&quot;text-align: left;&quot;&gt;&lt;span style=&quot;background-color: initial;&quot;&gt;・区分&lt;/span&gt;&lt;/div&gt;&lt;div style=&quot;text-align: left;&quot;&gt;&lt;span style=&quot;background-color: initial;&quot;&gt;・ステータス＝Non&lt;/span&gt;&lt;/div&gt;&lt;div style=&quot;text-align: left;&quot;&gt;&lt;span style=&quot;background-color: initial;&quot;&gt;・会社名&lt;/span&gt;&lt;/div&gt;&lt;div style=&quot;text-align: left;&quot;&gt;&lt;span style=&quot;background-color: initial;&quot;&gt;・電話番号&lt;/span&gt;&lt;/div&gt;&lt;div style=&quot;text-align: left;&quot;&gt;&lt;span style=&quot;background-color: initial;&quot;&gt;・FAX番号&lt;/span&gt;&lt;/div&gt;&lt;div style=&quot;text-align: left;&quot;&gt;&lt;span style=&quot;background-color: initial;&quot;&gt;・住所&lt;/span&gt;&lt;/div&gt;&lt;div style=&quot;text-align: left;&quot;&gt;&lt;span style=&quot;background-color: initial;&quot;&gt;・資本金&lt;/span&gt;&lt;/div&gt;&lt;div style=&quot;text-align: left;&quot;&gt;&lt;span style=&quot;background-color: initial;&quot;&gt;・売上高&lt;/span&gt;&lt;/div&gt;&lt;div style=&quot;text-align: left;&quot;&gt;&lt;br&gt;&lt;/div&gt;&lt;div style=&quot;text-align: left;&quot;&gt;&lt;span style=&quot;background-color: initial;&quot;&gt;【担当者情報】&lt;/span&gt;&lt;/div&gt;&lt;div style=&quot;text-align: left;&quot;&gt;&lt;span style=&quot;background-color: initial;&quot;&gt;・氏名&lt;/span&gt;&lt;/div&gt;&lt;div style=&quot;text-align: left;&quot;&gt;&lt;span style=&quot;background-color: initial;&quot;&gt;・メールアドレス&lt;/span&gt;&lt;/div&gt;&lt;div style=&quot;text-align: left;&quot;&gt;&lt;span style=&quot;background-color: initial;&quot;&gt;・電話番号&lt;/span&gt;&lt;/div&gt;&lt;div style=&quot;text-align: left;&quot;&gt;&lt;span style=&quot;background-color: initial;&quot;&gt;・部署名&lt;/span&gt;&lt;/div&gt;&lt;div style=&quot;text-align: left;&quot;&gt;&lt;span style=&quot;background-color: initial;&quot;&gt;・役職&lt;/span&gt;&lt;/div&gt;&lt;div style=&quot;text-align: left;&quot;&gt;&lt;span style=&quot;background-color: initial;&quot;&gt;・リードソース&lt;/span&gt;&lt;/div&gt;" style="shape=callout;whiteSpace=wrap;html=1;perimeter=calloutPerimeter;direction=north;base=20;size=30;position=0.44;position2=0.41;fontFamily=メイリオ;" vertex="1" parent="1">
          <mxGeometry x="109" y="-780" width="160" height="270" as="geometry" />
        </mxCell>
        <mxCell id="QSImZafnb6kRyXETiFEC-1" value="・Web検索&lt;br&gt;・問い合わせ&lt;br&gt;・紹介&lt;br&gt;・名刺交換&lt;br&gt;・個人コネクション&lt;br&gt;・リスト購入&lt;br&gt;" style="shape=callout;whiteSpace=wrap;html=1;perimeter=calloutPerimeter;position2=0.58;direction=south;align=left;size=20;position=0.19;fontFamily=メイリオ;" vertex="1" parent="1">
          <mxGeometry x="570" y="-1000" width="149" height="120" as="geometry" />
        </mxCell>
        <mxCell id="76PsD19tWAgGo87m4cR1-1" style="edgeStyle=orthogonalEdgeStyle;rounded=0;orthogonalLoop=1;jettySize=auto;html=1;exitX=0.5;exitY=1;exitDx=0;exitDy=0;entryX=0;entryY=0.5;entryDx=0;entryDy=0;fontFamily=メイリオ;" edge="1" parent="1" source="zUYAqePIwqvD1rjFFIvs-3" target="608KYR4JvQiETF1U95zd-12">
          <mxGeometry relative="1" as="geometry" />
        </mxCell>
        <mxCell id="kXIwymxZ-uPz5wmt4d56-2" style="edgeStyle=orthogonalEdgeStyle;rounded=0;orthogonalLoop=1;jettySize=auto;html=1;exitX=0.5;exitY=1;exitDx=0;exitDy=0;entryX=0.5;entryY=0;entryDx=0;entryDy=0;" edge="1" parent="1" source="kXIwymxZ-uPz5wmt4d56-1" target="zUYAqePIwqvD1rjFFIvs-5">
          <mxGeometry relative="1" as="geometry" />
        </mxCell>
      </root>
    </mxGraphModel>
  </diagram>
  <diagram id="wA_WfhvIzHAYOIYMTL-6" name="ヒアリング～案件">
    <mxGraphModel dx="878" dy="2033" grid="1" gridSize="10" guides="1" tooltips="1" connect="1" arrows="1" fold="1" page="1" pageScale="1" pageWidth="827" pageHeight="1169" math="0" shadow="0">
      <root>
        <mxCell id="0" />
        <mxCell id="1" parent="0" />
        <mxCell id="rGDoeIxgfBtDnVqb5YUB-33" value="ヒアリング～案件" style="swimlane;childLayout=stackLayout;resizeParent=1;resizeParentMax=0;startSize=20;html=1;fontFamily=メイリオ;" vertex="1" parent="1">
          <mxGeometry x="37" y="-1169" width="752.5" height="1730" as="geometry" />
        </mxCell>
        <mxCell id="rGDoeIxgfBtDnVqb5YUB-34" value="顧客" style="swimlane;startSize=39;html=1;fontFamily=メイリオ;" vertex="1" parent="rGDoeIxgfBtDnVqb5YUB-33">
          <mxGeometry y="20" width="230" height="1710" as="geometry" />
        </mxCell>
        <mxCell id="rGDoeIxgfBtDnVqb5YUB-42" value="ヒアリング対応" style="rounded=0;whiteSpace=wrap;html=1;fillColor=#E6E6E6;fontFamily=メイリオ;" vertex="1" parent="rGDoeIxgfBtDnVqb5YUB-34">
          <mxGeometry x="61.370000000000005" y="1069" width="105" height="50" as="geometry" />
        </mxCell>
        <mxCell id="rGDoeIxgfBtDnVqb5YUB-43" value="引き合い発生" style="rhombus;whiteSpace=wrap;html=1;fillColor=#FFFFCC;fontFamily=メイリオ;" vertex="1" parent="rGDoeIxgfBtDnVqb5YUB-34">
          <mxGeometry x="60.370000000000005" y="1209" width="107.5" height="60" as="geometry" />
        </mxCell>
        <mxCell id="rGDoeIxgfBtDnVqb5YUB-41" style="edgeStyle=orthogonalEdgeStyle;rounded=0;orthogonalLoop=1;jettySize=auto;html=1;exitX=0.5;exitY=1;exitDx=0;exitDy=0;entryX=0.5;entryY=0;entryDx=0;entryDy=0;fontFamily=メイリオ;" edge="1" parent="rGDoeIxgfBtDnVqb5YUB-34" source="rGDoeIxgfBtDnVqb5YUB-42" target="rGDoeIxgfBtDnVqb5YUB-43">
          <mxGeometry relative="1" as="geometry" />
        </mxCell>
        <mxCell id="rGDoeIxgfBtDnVqb5YUB-39" value="アポイントメント&lt;br&gt;調整対応" style="rounded=0;whiteSpace=wrap;html=1;fillColor=#E6E6E6;fontFamily=メイリオ;" vertex="1" parent="rGDoeIxgfBtDnVqb5YUB-34">
          <mxGeometry x="61.620000000000005" y="499" width="105" height="50" as="geometry" />
        </mxCell>
        <mxCell id="rGDoeIxgfBtDnVqb5YUB-40" value="ヒアリング&lt;br&gt;受け入れ" style="rhombus;whiteSpace=wrap;html=1;fillColor=#FFFFCC;fontFamily=メイリオ;" vertex="1" parent="rGDoeIxgfBtDnVqb5YUB-34">
          <mxGeometry x="60.370000000000005" y="651" width="107.5" height="60" as="geometry" />
        </mxCell>
        <mxCell id="rGDoeIxgfBtDnVqb5YUB-38" style="edgeStyle=orthogonalEdgeStyle;rounded=0;orthogonalLoop=1;jettySize=auto;html=1;exitX=0.5;exitY=1;exitDx=0;exitDy=0;fontFamily=メイリオ;" edge="1" parent="rGDoeIxgfBtDnVqb5YUB-34" source="rGDoeIxgfBtDnVqb5YUB-39" target="rGDoeIxgfBtDnVqb5YUB-40">
          <mxGeometry relative="1" as="geometry" />
        </mxCell>
        <mxCell id="_drU96_HndaHjP7uQXxD-8" value="No" style="edgeStyle=orthogonalEdgeStyle;rounded=0;orthogonalLoop=1;jettySize=auto;html=1;exitX=1;exitY=0.5;exitDx=0;exitDy=0;entryX=0;entryY=0.5;entryDx=0;entryDy=0;" edge="1" parent="rGDoeIxgfBtDnVqb5YUB-33" source="rGDoeIxgfBtDnVqb5YUB-43" target="_drU96_HndaHjP7uQXxD-7">
          <mxGeometry x="-0.5829" y="-1" relative="1" as="geometry">
            <mxPoint as="offset" />
          </mxGeometry>
        </mxCell>
        <mxCell id="_drU96_HndaHjP7uQXxD-10" style="edgeStyle=orthogonalEdgeStyle;rounded=0;orthogonalLoop=1;jettySize=auto;html=1;exitX=1;exitY=0.5;exitDx=0;exitDy=0;entryX=0.5;entryY=0;entryDx=0;entryDy=0;entryPerimeter=0;dashed=1;" edge="1" parent="rGDoeIxgfBtDnVqb5YUB-33" source="_drU96_HndaHjP7uQXxD-7" target="_drU96_HndaHjP7uQXxD-9">
          <mxGeometry relative="1" as="geometry" />
        </mxCell>
        <mxCell id="Yj6vm1d4VAAjg2HxNcbo-24" value="Yes" style="edgeStyle=orthogonalEdgeStyle;rounded=0;orthogonalLoop=1;jettySize=auto;html=1;exitX=0.5;exitY=1;exitDx=0;exitDy=0;entryX=0.5;entryY=0;entryDx=0;entryDy=0;" edge="1" parent="rGDoeIxgfBtDnVqb5YUB-33" source="rGDoeIxgfBtDnVqb5YUB-43" target="rGDoeIxgfBtDnVqb5YUB-61">
          <mxGeometry x="-0.7909" relative="1" as="geometry">
            <Array as="points">
              <mxPoint x="114" y="1481" />
              <mxPoint x="389" y="1481" />
            </Array>
            <mxPoint as="offset" />
          </mxGeometry>
        </mxCell>
        <mxCell id="rGDoeIxgfBtDnVqb5YUB-35" value="営業本部&lt;br&gt;（事業会社部・SIer部）" style="swimlane;startSize=39;html=1;fontFamily=メイリオ;" vertex="1" parent="rGDoeIxgfBtDnVqb5YUB-33">
          <mxGeometry x="230" y="20" width="302.5" height="1710" as="geometry" />
        </mxCell>
        <mxCell id="rGDoeIxgfBtDnVqb5YUB-51" value="終了" style="ellipse;whiteSpace=wrap;html=1;fontFamily=メイリオ;" vertex="1" parent="rGDoeIxgfBtDnVqb5YUB-35">
          <mxGeometry x="100.75" y="780" width="117.5" height="60" as="geometry" />
        </mxCell>
        <mxCell id="rGDoeIxgfBtDnVqb5YUB-53" value="アタック先&lt;br&gt;情報収集" style="rounded=0;whiteSpace=wrap;html=1;fillColor=#E6E6E6;fontFamily=メイリオ;" vertex="1" parent="rGDoeIxgfBtDnVqb5YUB-35">
          <mxGeometry x="105.5" y="879" width="105" height="50" as="geometry" />
        </mxCell>
        <mxCell id="_drU96_HndaHjP7uQXxD-4" style="edgeStyle=orthogonalEdgeStyle;rounded=0;orthogonalLoop=1;jettySize=auto;html=1;exitX=0.5;exitY=1;exitDx=0;exitDy=0;entryX=0.5;entryY=0;entryDx=0;entryDy=0;" edge="1" parent="rGDoeIxgfBtDnVqb5YUB-35" source="rGDoeIxgfBtDnVqb5YUB-54" target="_drU96_HndaHjP7uQXxD-3">
          <mxGeometry relative="1" as="geometry" />
        </mxCell>
        <mxCell id="rGDoeIxgfBtDnVqb5YUB-54" value="空要員&lt;br&gt;スキル把握" style="rounded=0;whiteSpace=wrap;html=1;fillColor=#E6E6E6;fontFamily=メイリオ;" vertex="1" parent="rGDoeIxgfBtDnVqb5YUB-35">
          <mxGeometry x="105.25" y="969" width="105" height="50" as="geometry" />
        </mxCell>
        <mxCell id="rGDoeIxgfBtDnVqb5YUB-52" style="edgeStyle=orthogonalEdgeStyle;rounded=0;orthogonalLoop=1;jettySize=auto;html=1;exitX=0.5;exitY=1;exitDx=0;exitDy=0;entryX=0.5;entryY=0;entryDx=0;entryDy=0;fontFamily=メイリオ;" edge="1" parent="rGDoeIxgfBtDnVqb5YUB-35" source="rGDoeIxgfBtDnVqb5YUB-53" target="rGDoeIxgfBtDnVqb5YUB-54">
          <mxGeometry relative="1" as="geometry" />
        </mxCell>
        <mxCell id="_drU96_HndaHjP7uQXxD-1" style="edgeStyle=orthogonalEdgeStyle;rounded=0;orthogonalLoop=1;jettySize=auto;html=1;exitX=0.5;exitY=1;exitDx=0;exitDy=0;entryX=0.5;entryY=0;entryDx=0;entryDy=0;" edge="1" parent="rGDoeIxgfBtDnVqb5YUB-35" source="oq34dmRI6zFOs6xwOAJq-8" target="rGDoeIxgfBtDnVqb5YUB-51">
          <mxGeometry relative="1" as="geometry" />
        </mxCell>
        <mxCell id="oq34dmRI6zFOs6xwOAJq-8" value="アタックリスト&lt;br&gt;情報更新" style="rounded=0;whiteSpace=wrap;html=1;fillColor=#E6E6E6;fontFamily=メイリオ;" vertex="1" parent="rGDoeIxgfBtDnVqb5YUB-35">
          <mxGeometry x="107" y="657" width="105" height="50" as="geometry" />
        </mxCell>
        <mxCell id="_drU96_HndaHjP7uQXxD-3" value="ヒアリング" style="rounded=0;whiteSpace=wrap;html=1;fillColor=#E6E6E6;fontFamily=メイリオ;" vertex="1" parent="rGDoeIxgfBtDnVqb5YUB-35">
          <mxGeometry x="105.25" y="1069" width="105" height="50" as="geometry" />
        </mxCell>
        <mxCell id="rGDoeIxgfBtDnVqb5YUB-58" value="アポイントメント&lt;br&gt;調整&lt;br&gt;（電話・メール）" style="rounded=0;whiteSpace=wrap;html=1;fillColor=#E6E6E6;fontFamily=メイリオ;" vertex="1" parent="rGDoeIxgfBtDnVqb5YUB-35">
          <mxGeometry x="107.25" y="499" width="105" height="50" as="geometry" />
        </mxCell>
        <mxCell id="rGDoeIxgfBtDnVqb5YUB-67" value="開始" style="ellipse;whiteSpace=wrap;html=1;fontFamily=メイリオ;" vertex="1" parent="rGDoeIxgfBtDnVqb5YUB-35">
          <mxGeometry x="101" y="79" width="117.5" height="60" as="geometry" />
        </mxCell>
        <mxCell id="rGDoeIxgfBtDnVqb5YUB-69" value="アタック先&lt;br&gt;情報収集" style="rounded=0;whiteSpace=wrap;html=1;fillColor=#E6E6E6;fontFamily=メイリオ;" vertex="1" parent="rGDoeIxgfBtDnVqb5YUB-35">
          <mxGeometry x="107.25" y="179" width="105" height="50" as="geometry" />
        </mxCell>
        <mxCell id="rGDoeIxgfBtDnVqb5YUB-66" style="edgeStyle=orthogonalEdgeStyle;rounded=0;orthogonalLoop=1;jettySize=auto;html=1;exitX=0.5;exitY=1;exitDx=0;exitDy=0;entryX=0.5;entryY=0;entryDx=0;entryDy=0;fontFamily=メイリオ;" edge="1" parent="rGDoeIxgfBtDnVqb5YUB-35" source="rGDoeIxgfBtDnVqb5YUB-67" target="rGDoeIxgfBtDnVqb5YUB-69">
          <mxGeometry relative="1" as="geometry" />
        </mxCell>
        <mxCell id="rGDoeIxgfBtDnVqb5YUB-70" style="edgeStyle=orthogonalEdgeStyle;rounded=0;orthogonalLoop=1;jettySize=auto;html=1;exitX=0.5;exitY=1;exitDx=0;exitDy=0;entryX=0.5;entryY=0;entryDx=0;entryDy=0;fontFamily=メイリオ;" edge="1" parent="rGDoeIxgfBtDnVqb5YUB-35" source="rGDoeIxgfBtDnVqb5YUB-71" target="rGDoeIxgfBtDnVqb5YUB-58">
          <mxGeometry relative="1" as="geometry" />
        </mxCell>
        <mxCell id="rGDoeIxgfBtDnVqb5YUB-71" value="空要員&lt;br&gt;スキル把握" style="rounded=0;whiteSpace=wrap;html=1;fillColor=#E6E6E6;fontFamily=メイリオ;" vertex="1" parent="rGDoeIxgfBtDnVqb5YUB-35">
          <mxGeometry x="107.25" y="289" width="105" height="50" as="geometry" />
        </mxCell>
        <mxCell id="rGDoeIxgfBtDnVqb5YUB-68" style="edgeStyle=orthogonalEdgeStyle;rounded=0;orthogonalLoop=1;jettySize=auto;html=1;exitX=0.5;exitY=1;exitDx=0;exitDy=0;entryX=0.5;entryY=0;entryDx=0;entryDy=0;fontFamily=メイリオ;" edge="1" parent="rGDoeIxgfBtDnVqb5YUB-35" source="rGDoeIxgfBtDnVqb5YUB-69" target="rGDoeIxgfBtDnVqb5YUB-71">
          <mxGeometry relative="1" as="geometry" />
        </mxCell>
        <mxCell id="_drU96_HndaHjP7uQXxD-12" style="edgeStyle=orthogonalEdgeStyle;rounded=0;orthogonalLoop=1;jettySize=auto;html=1;exitX=0.5;exitY=1;exitDx=0;exitDy=0;entryX=0.5;entryY=0;entryDx=0;entryDy=0;" edge="1" parent="rGDoeIxgfBtDnVqb5YUB-35" source="_drU96_HndaHjP7uQXxD-7" target="_drU96_HndaHjP7uQXxD-11">
          <mxGeometry relative="1" as="geometry" />
        </mxCell>
        <mxCell id="_drU96_HndaHjP7uQXxD-7" value="アタックリスト&lt;br&gt;情報更新" style="rounded=0;whiteSpace=wrap;html=1;fillColor=#E6E6E6;fontFamily=メイリオ;" vertex="1" parent="rGDoeIxgfBtDnVqb5YUB-35">
          <mxGeometry x="105.25" y="1215" width="105" height="50" as="geometry" />
        </mxCell>
        <mxCell id="rGDoeIxgfBtDnVqb5YUB-61" value="案件情報新規作成" style="rounded=0;whiteSpace=wrap;html=1;fillColor=#E6E6E6;fontFamily=メイリオ;" vertex="1" parent="rGDoeIxgfBtDnVqb5YUB-35">
          <mxGeometry x="107" y="1491" width="105" height="50" as="geometry" />
        </mxCell>
        <mxCell id="rGDoeIxgfBtDnVqb5YUB-56" value="終了" style="ellipse;whiteSpace=wrap;html=1;fontFamily=メイリオ;" vertex="1" parent="rGDoeIxgfBtDnVqb5YUB-35">
          <mxGeometry x="101" y="1592" width="117.5" height="60" as="geometry" />
        </mxCell>
        <mxCell id="rGDoeIxgfBtDnVqb5YUB-60" style="edgeStyle=orthogonalEdgeStyle;rounded=0;orthogonalLoop=1;jettySize=auto;html=1;exitX=0.5;exitY=1;exitDx=0;exitDy=0;fontFamily=メイリオ;" edge="1" parent="rGDoeIxgfBtDnVqb5YUB-35" source="rGDoeIxgfBtDnVqb5YUB-61" target="rGDoeIxgfBtDnVqb5YUB-56">
          <mxGeometry relative="1" as="geometry" />
        </mxCell>
        <mxCell id="_drU96_HndaHjP7uQXxD-11" value="終了" style="ellipse;whiteSpace=wrap;html=1;" vertex="1" parent="rGDoeIxgfBtDnVqb5YUB-35">
          <mxGeometry x="97.5" y="1329" width="120" height="80" as="geometry" />
        </mxCell>
        <mxCell id="rGDoeIxgfBtDnVqb5YUB-50" value="&lt;font color=&quot;#ffffff&quot;&gt;&lt;span style=&quot;font-size: 18px;&quot;&gt;&lt;b&gt;案件&lt;/b&gt;&lt;/span&gt;&lt;/font&gt;" style="shape=cylinder3;whiteSpace=wrap;html=1;boundedLbl=1;backgroundOutline=1;size=15;fillColor=#007FFF;fontFamily=メイリオ;" vertex="1" parent="rGDoeIxgfBtDnVqb5YUB-35">
          <mxGeometry x="-15.25" y="1551" width="110" height="70" as="geometry" />
        </mxCell>
        <mxCell id="rGDoeIxgfBtDnVqb5YUB-59" style="edgeStyle=orthogonalEdgeStyle;rounded=0;orthogonalLoop=1;jettySize=auto;html=1;exitX=0;exitY=0.75;exitDx=0;exitDy=0;entryX=0.5;entryY=0;entryDx=0;entryDy=0;entryPerimeter=0;dashed=1;fontFamily=メイリオ;" edge="1" parent="rGDoeIxgfBtDnVqb5YUB-35" source="rGDoeIxgfBtDnVqb5YUB-61" target="rGDoeIxgfBtDnVqb5YUB-50">
          <mxGeometry relative="1" as="geometry">
            <mxPoint x="39.5" y="1512" as="targetPoint" />
          </mxGeometry>
        </mxCell>
        <mxCell id="_drU96_HndaHjP7uQXxD-2" style="edgeStyle=orthogonalEdgeStyle;rounded=0;orthogonalLoop=1;jettySize=auto;html=1;exitX=1;exitY=0.5;exitDx=0;exitDy=0;entryX=0.5;entryY=0;entryDx=0;entryDy=0;entryPerimeter=0;dashed=1;" edge="1" parent="rGDoeIxgfBtDnVqb5YUB-33" source="oq34dmRI6zFOs6xwOAJq-8" target="oq34dmRI6zFOs6xwOAJq-7">
          <mxGeometry relative="1" as="geometry" />
        </mxCell>
        <mxCell id="rGDoeIxgfBtDnVqb5YUB-44" value="No" style="edgeStyle=orthogonalEdgeStyle;rounded=0;orthogonalLoop=1;jettySize=auto;html=1;exitX=1;exitY=0.5;exitDx=0;exitDy=0;entryX=0;entryY=0.5;entryDx=0;entryDy=0;fontFamily=メイリオ;" edge="1" parent="rGDoeIxgfBtDnVqb5YUB-33" source="rGDoeIxgfBtDnVqb5YUB-40" target="oq34dmRI6zFOs6xwOAJq-8">
          <mxGeometry relative="1" as="geometry">
            <mxPoint x="362.75" y="701" as="targetPoint" />
          </mxGeometry>
        </mxCell>
        <mxCell id="rGDoeIxgfBtDnVqb5YUB-72" style="edgeStyle=orthogonalEdgeStyle;rounded=0;orthogonalLoop=1;jettySize=auto;html=1;exitX=0;exitY=0.5;exitDx=0;exitDy=0;exitPerimeter=0;entryX=1;entryY=0.5;entryDx=0;entryDy=0;fontFamily=メイリオ;dashed=1;" edge="1" parent="rGDoeIxgfBtDnVqb5YUB-33" source="rGDoeIxgfBtDnVqb5YUB-73" target="rGDoeIxgfBtDnVqb5YUB-71">
          <mxGeometry relative="1" as="geometry" />
        </mxCell>
        <mxCell id="Yj6vm1d4VAAjg2HxNcbo-1" style="edgeStyle=orthogonalEdgeStyle;rounded=0;orthogonalLoop=1;jettySize=auto;html=1;exitX=0;exitY=0.5;exitDx=0;exitDy=0;exitPerimeter=0;entryX=1;entryY=0.25;entryDx=0;entryDy=0;dashed=1;" edge="1" parent="rGDoeIxgfBtDnVqb5YUB-33" source="rGDoeIxgfBtDnVqb5YUB-65" target="rGDoeIxgfBtDnVqb5YUB-58">
          <mxGeometry relative="1" as="geometry" />
        </mxCell>
        <mxCell id="Yj6vm1d4VAAjg2HxNcbo-2" style="edgeStyle=orthogonalEdgeStyle;rounded=0;orthogonalLoop=1;jettySize=auto;html=1;exitX=1;exitY=0.5;exitDx=0;exitDy=0;entryX=0;entryY=0.5;entryDx=0;entryDy=0;entryPerimeter=0;dashed=1;" edge="1" parent="rGDoeIxgfBtDnVqb5YUB-33" source="rGDoeIxgfBtDnVqb5YUB-58" target="rGDoeIxgfBtDnVqb5YUB-63">
          <mxGeometry relative="1" as="geometry" />
        </mxCell>
        <mxCell id="Yj6vm1d4VAAjg2HxNcbo-6" style="edgeStyle=orthogonalEdgeStyle;rounded=0;orthogonalLoop=1;jettySize=auto;html=1;exitX=0;exitY=0.5;exitDx=0;exitDy=0;entryX=1;entryY=0.5;entryDx=0;entryDy=0;" edge="1" parent="rGDoeIxgfBtDnVqb5YUB-33" source="rGDoeIxgfBtDnVqb5YUB-58" target="rGDoeIxgfBtDnVqb5YUB-39">
          <mxGeometry relative="1" as="geometry">
            <mxPoint x="337.25" y="544" as="sourcePoint" />
            <Array as="points">
              <mxPoint x="337" y="544" />
            </Array>
          </mxGeometry>
        </mxCell>
        <mxCell id="_drU96_HndaHjP7uQXxD-5" style="edgeStyle=orthogonalEdgeStyle;rounded=0;orthogonalLoop=1;jettySize=auto;html=1;exitX=0;exitY=0.5;exitDx=0;exitDy=0;entryX=1;entryY=0.5;entryDx=0;entryDy=0;" edge="1" parent="rGDoeIxgfBtDnVqb5YUB-33" source="_drU96_HndaHjP7uQXxD-3" target="rGDoeIxgfBtDnVqb5YUB-42">
          <mxGeometry relative="1" as="geometry" />
        </mxCell>
        <mxCell id="rGDoeIxgfBtDnVqb5YUB-36" value="営業事務" style="swimlane;startSize=39;html=1;fontFamily=メイリオ;" vertex="1" parent="rGDoeIxgfBtDnVqb5YUB-33">
          <mxGeometry x="532.5" y="20" width="220" height="1710" as="geometry" />
        </mxCell>
        <mxCell id="rGDoeIxgfBtDnVqb5YUB-73" value="&lt;b&gt;&lt;font style=&quot;font-size: 18px;&quot; color=&quot;#ffffff&quot;&gt;要員&lt;/font&gt;&lt;/b&gt;" style="shape=cylinder3;whiteSpace=wrap;html=1;boundedLbl=1;backgroundOutline=1;size=15;fillColor=#007FFF;fontFamily=メイリオ;" vertex="1" parent="rGDoeIxgfBtDnVqb5YUB-36">
          <mxGeometry x="58.75" y="284.5" width="102.5" height="59" as="geometry" />
        </mxCell>
        <mxCell id="oq34dmRI6zFOs6xwOAJq-3" value="&lt;div style=&quot;border-color: var(--border-color); text-align: justify;&quot;&gt;&lt;/div&gt;&lt;span style=&quot;border-color: var(--border-color); background-color: initial;&quot;&gt;&lt;/span&gt;&lt;blockquote style=&quot;border: none; margin: 0px 0px 0px 40px; padding: 0px;&quot;&gt;&lt;/blockquote&gt;&lt;span style=&quot;border-color: var(--border-color); background-color: initial;&quot;&gt;&lt;div style=&quot;border-color: var(--border-color); text-align: justify;&quot;&gt;・区分&lt;/div&gt;&lt;div style=&quot;border-color: var(--border-color); text-align: justify;&quot;&gt;・氏名&lt;/div&gt;&lt;div style=&quot;border-color: var(--border-color); text-align: justify;&quot;&gt;&lt;span style=&quot;border-color: var(--border-color); background-color: initial;&quot;&gt;・年齢&lt;/span&gt;&lt;/div&gt;&lt;/span&gt;&lt;blockquote style=&quot;border: none; margin: 0px 0px 0px 40px; padding: 0px;&quot;&gt;&lt;/blockquote&gt;&lt;span style=&quot;border-color: var(--border-color); background-color: initial;&quot;&gt;&lt;div style=&quot;border-color: var(--border-color); text-align: justify;&quot;&gt;&lt;span style=&quot;border-color: var(--border-color); background-color: initial;&quot;&gt;・メールアドレス&lt;/span&gt;&lt;/div&gt;&lt;/span&gt;&lt;blockquote style=&quot;border: none; margin: 0px 0px 0px 40px; padding: 0px;&quot;&gt;&lt;/blockquote&gt;&lt;span style=&quot;border-color: var(--border-color); background-color: initial;&quot;&gt;&lt;div style=&quot;border-color: var(--border-color); text-align: justify;&quot;&gt;&lt;span style=&quot;border-color: var(--border-color); background-color: initial;&quot;&gt;・電話番号&lt;/span&gt;&lt;/div&gt;&lt;/span&gt;&lt;blockquote style=&quot;border: none; margin: 0px 0px 0px 40px; padding: 0px;&quot;&gt;&lt;/blockquote&gt;&lt;span style=&quot;border-color: var(--border-color); background-color: initial;&quot;&gt;&lt;div style=&quot;border-color: var(--border-color); text-align: justify;&quot;&gt;&lt;span style=&quot;border-color: var(--border-color); background-color: initial;&quot;&gt;・役職&lt;/span&gt;&lt;/div&gt;&lt;/span&gt;&lt;blockquote style=&quot;border: none; margin: 0px 0px 0px 40px; padding: 0px;&quot;&gt;&lt;/blockquote&gt;&lt;span style=&quot;border-color: var(--border-color); background-color: initial;&quot;&gt;&lt;div style=&quot;border-color: var(--border-color); text-align: justify;&quot;&gt;&lt;span style=&quot;border-color: var(--border-color); background-color: initial;&quot;&gt;・状況&lt;/span&gt;&lt;/div&gt;&lt;/span&gt;&lt;blockquote style=&quot;border: none; margin: 0px 0px 0px 40px; padding: 0px;&quot;&gt;&lt;/blockquote&gt;&lt;span style=&quot;border-color: var(--border-color); background-color: initial;&quot;&gt;&lt;div style=&quot;border-color: var(--border-color); text-align: justify;&quot;&gt;&lt;span style=&quot;border-color: var(--border-color); background-color: initial;&quot;&gt;・標準単価&lt;/span&gt;&lt;/div&gt;&lt;/span&gt;&lt;blockquote style=&quot;border: none; margin: 0px 0px 0px 40px; padding: 0px;&quot;&gt;&lt;/blockquote&gt;&lt;span style=&quot;border-color: var(--border-color); background-color: initial;&quot;&gt;&lt;div style=&quot;border-color: var(--border-color); text-align: justify;&quot;&gt;&lt;span style=&quot;border-color: var(--border-color); background-color: initial;&quot;&gt;・標準原価&lt;/span&gt;&lt;/div&gt;&lt;/span&gt;&lt;div style=&quot;border-color: var(--border-color); text-align: justify;&quot;&gt;&lt;span style=&quot;border-color: var(--border-color); background-color: initial;&quot;&gt;・スキル情報&lt;/span&gt;&lt;/div&gt;&lt;div style=&quot;border-color: var(--border-color); text-align: justify;&quot;&gt;&lt;span style=&quot;border-color: var(--border-color); background-color: initial;&quot;&gt;（言語・CB・OS）&lt;/span&gt;&lt;/div&gt;" style="shape=callout;whiteSpace=wrap;html=1;perimeter=calloutPerimeter;direction=west;position2=0.83;fontFamily=メイリオ;" vertex="1" parent="rGDoeIxgfBtDnVqb5YUB-36">
          <mxGeometry x="97" y="339" width="120" height="211" as="geometry" />
        </mxCell>
        <mxCell id="oq34dmRI6zFOs6xwOAJq-5" style="edgeStyle=orthogonalEdgeStyle;rounded=0;orthogonalLoop=1;jettySize=auto;html=1;exitX=0.5;exitY=1;exitDx=0;exitDy=0;entryX=0.5;entryY=0;entryDx=0;entryDy=0;entryPerimeter=0;fontFamily=メイリオ;" edge="1" parent="rGDoeIxgfBtDnVqb5YUB-36" source="oq34dmRI6zFOs6xwOAJq-4" target="rGDoeIxgfBtDnVqb5YUB-73">
          <mxGeometry relative="1" as="geometry" />
        </mxCell>
        <mxCell id="oq34dmRI6zFOs6xwOAJq-4" value="要員一覧作成" style="rounded=0;whiteSpace=wrap;html=1;fillColor=#E6E6E6;fontFamily=メイリオ;" vertex="1" parent="rGDoeIxgfBtDnVqb5YUB-36">
          <mxGeometry x="57.25" y="179" width="105" height="50" as="geometry" />
        </mxCell>
        <mxCell id="rGDoeIxgfBtDnVqb5YUB-65" value="&lt;b&gt;&lt;font style=&quot;font-size: 12px;&quot; color=&quot;#ffffff&quot;&gt;メール&lt;br&gt;テンプレート&lt;/font&gt;&lt;/b&gt;" style="shape=cylinder3;whiteSpace=wrap;html=1;boundedLbl=1;backgroundOutline=1;size=15;fillColor=#007FFF;fontFamily=メイリオ;" vertex="1" parent="rGDoeIxgfBtDnVqb5YUB-36">
          <mxGeometry x="-45.25" y="429" width="102.5" height="59" as="geometry" />
        </mxCell>
        <mxCell id="rGDoeIxgfBtDnVqb5YUB-63" value="&lt;b&gt;&lt;font style=&quot;font-size: 18px;&quot; color=&quot;#ffffff&quot;&gt;活動&lt;/font&gt;&lt;/b&gt;" style="shape=cylinder3;whiteSpace=wrap;html=1;boundedLbl=1;backgroundOutline=1;size=15;fillColor=#007FFF;fontFamily=メイリオ;" vertex="1" parent="rGDoeIxgfBtDnVqb5YUB-36">
          <mxGeometry x="-45.25" y="565" width="102.5" height="59" as="geometry" />
        </mxCell>
        <mxCell id="oq34dmRI6zFOs6xwOAJq-7" value="&lt;b&gt;&lt;font style=&quot;font-size: 18px;&quot; color=&quot;#ffffff&quot;&gt;見込み客&lt;/font&gt;&lt;/b&gt;" style="shape=cylinder3;whiteSpace=wrap;html=1;boundedLbl=1;backgroundOutline=1;size=15;fillColor=#007FFF;fontFamily=メイリオ;" vertex="1" parent="rGDoeIxgfBtDnVqb5YUB-36">
          <mxGeometry x="-45.25" y="721" width="102.5" height="59" as="geometry" />
        </mxCell>
        <mxCell id="_drU96_HndaHjP7uQXxD-9" value="&lt;b&gt;&lt;font style=&quot;font-size: 18px;&quot; color=&quot;#ffffff&quot;&gt;見込み客&lt;/font&gt;&lt;/b&gt;" style="shape=cylinder3;whiteSpace=wrap;html=1;boundedLbl=1;backgroundOutline=1;size=15;fillColor=#007FFF;fontFamily=メイリオ;" vertex="1" parent="rGDoeIxgfBtDnVqb5YUB-36">
          <mxGeometry x="-45.5" y="1274" width="102.5" height="59" as="geometry" />
        </mxCell>
        <mxCell id="_drU96_HndaHjP7uQXxD-13" value="ステータス＝見込み無し" style="shape=callout;whiteSpace=wrap;html=1;perimeter=calloutPerimeter;direction=south;base=10;" vertex="1" parent="rGDoeIxgfBtDnVqb5YUB-36">
          <mxGeometry x="47.5" y="730.5" width="169.5" height="40" as="geometry" />
        </mxCell>
        <mxCell id="_drU96_HndaHjP7uQXxD-14" value="ステータス＝見込み無し" style="shape=callout;whiteSpace=wrap;html=1;perimeter=calloutPerimeter;direction=south;base=10;" vertex="1" parent="rGDoeIxgfBtDnVqb5YUB-36">
          <mxGeometry x="45.75" y="1293" width="169.5" height="40" as="geometry" />
        </mxCell>
        <mxCell id="Yj6vm1d4VAAjg2HxNcbo-14" value="Yes" style="edgeStyle=orthogonalEdgeStyle;rounded=0;orthogonalLoop=1;jettySize=auto;html=1;exitX=0.5;exitY=1;exitDx=0;exitDy=0;entryX=0;entryY=0.5;entryDx=0;entryDy=0;" edge="1" parent="rGDoeIxgfBtDnVqb5YUB-33" source="rGDoeIxgfBtDnVqb5YUB-40" target="rGDoeIxgfBtDnVqb5YUB-53">
          <mxGeometry x="-0.7275" relative="1" as="geometry">
            <mxPoint x="336.75" y="934" as="targetPoint" />
            <mxPoint as="offset" />
          </mxGeometry>
        </mxCell>
        <mxCell id="rGDoeIxgfBtDnVqb5YUB-62" value="&lt;div style=&quot;text-align: left;&quot;&gt;&lt;span style=&quot;background-color: initial;&quot;&gt;・クライアント&lt;/span&gt;&lt;/div&gt;&lt;div style=&quot;text-align: left;&quot;&gt;&lt;span style=&quot;background-color: initial;&quot;&gt;・案件名&lt;/span&gt;&lt;/div&gt;&lt;div style=&quot;text-align: left;&quot;&gt;&lt;span style=&quot;background-color: initial;&quot;&gt;・案件概要&lt;/span&gt;&lt;/div&gt;&lt;div style=&quot;text-align: left;&quot;&gt;&lt;span style=&quot;background-color: initial;&quot;&gt;・必要要員数&lt;/span&gt;&lt;/div&gt;&lt;div style=&quot;text-align: left;&quot;&gt;&lt;span style=&quot;background-color: initial;&quot;&gt;・必要スキル&lt;/span&gt;&lt;/div&gt;&lt;div style=&quot;text-align: left;&quot;&gt;&lt;span style=&quot;background-color: initial;&quot;&gt;・期間&lt;/span&gt;&lt;/div&gt;&lt;div style=&quot;text-align: left;&quot;&gt;&lt;span style=&quot;background-color: initial;&quot;&gt;・ステータス＝未提案&lt;/span&gt;&lt;/div&gt;&lt;div style=&quot;text-align: left;&quot;&gt;&lt;span style=&quot;background-color: initial;&quot;&gt;・備考&lt;/span&gt;&lt;/div&gt;" style="shape=callout;whiteSpace=wrap;html=1;perimeter=calloutPerimeter;position2=0.63;base=9;size=5;position=0.63;direction=north;fontFamily=メイリオ;" vertex="1" parent="1">
          <mxGeometry x="116.25" y="367" width="145" height="135" as="geometry" />
        </mxCell>
      </root>
    </mxGraphModel>
  </diagram>
  <diagram id="U3g6PsqkJRpExe10e3pv" name="提案">
    <mxGraphModel dx="1873" dy="3145" grid="1" gridSize="10" guides="1" tooltips="1" connect="1" arrows="1" fold="1" page="1" pageScale="1" pageWidth="827" pageHeight="1169" math="0" shadow="0">
      <root>
        <mxCell id="0" />
        <mxCell id="1" parent="0" />
        <mxCell id="4d2z-hPTyXuoOUNdP7N7-1" value="3. 提案" style="swimlane;childLayout=stackLayout;resizeParent=1;resizeParentMax=0;startSize=20;html=1;fontFamily=メイリオ;" parent="1" vertex="1">
          <mxGeometry x="18" y="-2300" width="790" height="1860" as="geometry" />
        </mxCell>
        <mxCell id="4d2z-hPTyXuoOUNdP7N7-2" value="顧客" style="swimlane;startSize=30;html=1;fillColor=#FFFFFF;fontFamily=メイリオ;" parent="4d2z-hPTyXuoOUNdP7N7-1" vertex="1">
          <mxGeometry y="20" width="190" height="1840" as="geometry" />
        </mxCell>
        <mxCell id="CgkbCNKffJWYKyCrZS3h-9" style="edgeStyle=orthogonalEdgeStyle;rounded=0;orthogonalLoop=1;jettySize=auto;html=1;exitX=0.5;exitY=1;exitDx=0;exitDy=0;entryX=0.5;entryY=0;entryDx=0;entryDy=0;fontFamily=メイリオ;" parent="4d2z-hPTyXuoOUNdP7N7-2" source="CgkbCNKffJWYKyCrZS3h-6" target="CgkbCNKffJWYKyCrZS3h-8" edge="1">
          <mxGeometry relative="1" as="geometry" />
        </mxCell>
        <mxCell id="CgkbCNKffJWYKyCrZS3h-6" value="提案対応" style="rounded=0;whiteSpace=wrap;html=1;fillColor=#E6E6E6;fontFamily=メイリオ;" parent="4d2z-hPTyXuoOUNdP7N7-2" vertex="1">
          <mxGeometry x="84.5" y="704" width="95" height="35" as="geometry" />
        </mxCell>
        <mxCell id="CgkbCNKffJWYKyCrZS3h-11" value="Yes" style="edgeStyle=orthogonalEdgeStyle;rounded=0;orthogonalLoop=1;jettySize=auto;html=1;exitX=0.5;exitY=1;exitDx=0;exitDy=0;fontFamily=メイリオ;" parent="4d2z-hPTyXuoOUNdP7N7-2" source="CgkbCNKffJWYKyCrZS3h-8" target="CgkbCNKffJWYKyCrZS3h-10" edge="1">
          <mxGeometry relative="1" as="geometry" />
        </mxCell>
        <mxCell id="CgkbCNKffJWYKyCrZS3h-8" value="提案受け入れ" style="rhombus;whiteSpace=wrap;html=1;fillColor=#FFFFCC;fontFamily=メイリオ;" parent="4d2z-hPTyXuoOUNdP7N7-2" vertex="1">
          <mxGeometry x="62" y="816.5" width="140" height="60" as="geometry" />
        </mxCell>
        <mxCell id="CgkbCNKffJWYKyCrZS3h-10" value="契約" style="rounded=0;whiteSpace=wrap;html=1;fillColor=#E6E6E6;fontFamily=メイリオ;" parent="4d2z-hPTyXuoOUNdP7N7-2" vertex="1">
          <mxGeometry x="84.5" y="966.5" width="95" height="35" as="geometry" />
        </mxCell>
        <mxCell id="4d2z-hPTyXuoOUNdP7N7-3" value="営業本部&lt;br&gt;（事業会社・SIer）" style="swimlane;startSize=30;html=1;fontFamily=メイリオ;" parent="4d2z-hPTyXuoOUNdP7N7-1" vertex="1">
          <mxGeometry x="190" y="20" width="400" height="1840" as="geometry" />
        </mxCell>
        <mxCell id="ep-Ipgn7JQY2wO0V79qC-8" value="Yes" style="edgeStyle=orthogonalEdgeStyle;rounded=0;orthogonalLoop=1;jettySize=auto;html=1;exitX=0;exitY=0.5;exitDx=0;exitDy=0;fontFamily=メイリオ;entryX=0.5;entryY=0;entryDx=0;entryDy=0;" parent="4d2z-hPTyXuoOUNdP7N7-3" source="ep-Ipgn7JQY2wO0V79qC-3" target="5VYHyZ97xjCam4TJDJ00-1" edge="1">
          <mxGeometry x="0.3209" relative="1" as="geometry">
            <mxPoint x="127" y="324" as="targetPoint" />
            <Array as="points">
              <mxPoint x="100" y="264" />
            </Array>
            <mxPoint as="offset" />
          </mxGeometry>
        </mxCell>
        <mxCell id="ep-Ipgn7JQY2wO0V79qC-3" value="適正要員の有無" style="rhombus;whiteSpace=wrap;html=1;fillColor=#FFFFCC;fontFamily=メイリオ;" parent="4d2z-hPTyXuoOUNdP7N7-3" vertex="1">
          <mxGeometry x="147" y="234" width="140" height="60" as="geometry" />
        </mxCell>
        <mxCell id="ep-Ipgn7JQY2wO0V79qC-7" value="&lt;font color=&quot;#ffffff&quot;&gt;&lt;span style=&quot;font-size: 18px;&quot;&gt;&lt;b&gt;見積&lt;/b&gt;&lt;/span&gt;&lt;/font&gt;" style="shape=cylinder3;whiteSpace=wrap;html=1;boundedLbl=1;backgroundOutline=1;size=15;fillColor=#007FFF;fontFamily=メイリオ;" parent="4d2z-hPTyXuoOUNdP7N7-3" vertex="1">
          <mxGeometry x="-38" y="364" width="110" height="70" as="geometry" />
        </mxCell>
        <mxCell id="CgkbCNKffJWYKyCrZS3h-4" value="提案" style="rounded=0;whiteSpace=wrap;html=1;fillColor=#E6E6E6;fontFamily=メイリオ;" parent="4d2z-hPTyXuoOUNdP7N7-3" vertex="1">
          <mxGeometry x="52" y="704" width="95" height="35" as="geometry" />
        </mxCell>
        <mxCell id="CgkbCNKffJWYKyCrZS3h-12" value="&lt;font style=&quot;font-size: 18px;&quot; color=&quot;#ffffff&quot;&gt;&lt;b&gt;案件&lt;/b&gt;&lt;/font&gt;" style="shape=cylinder3;whiteSpace=wrap;html=1;boundedLbl=1;backgroundOutline=1;size=15;fillColor=#007FFF;fontFamily=メイリオ;" parent="4d2z-hPTyXuoOUNdP7N7-3" vertex="1">
          <mxGeometry x="242" y="874" width="110" height="70" as="geometry" />
        </mxCell>
        <mxCell id="CgkbCNKffJWYKyCrZS3h-18" value="&lt;font style=&quot;font-size: 18px;&quot; color=&quot;#ffffff&quot;&gt;&lt;b&gt;案件&lt;/b&gt;&lt;/font&gt;" style="shape=cylinder3;whiteSpace=wrap;html=1;boundedLbl=1;backgroundOutline=1;size=15;fillColor=#007FFF;fontFamily=メイリオ;" parent="4d2z-hPTyXuoOUNdP7N7-3" vertex="1">
          <mxGeometry x="249.75" y="1297" width="110" height="70" as="geometry" />
        </mxCell>
        <mxCell id="bXa9ik0QpTQZWGHiXE9w-3" value="&lt;font style=&quot;font-size: 18px;&quot; color=&quot;#ffffff&quot;&gt;&lt;b&gt;案件&lt;/b&gt;&lt;/font&gt;" style="shape=cylinder3;whiteSpace=wrap;html=1;boundedLbl=1;backgroundOutline=1;size=15;fillColor=#007FFF;fontFamily=メイリオ;" parent="4d2z-hPTyXuoOUNdP7N7-3" vertex="1">
          <mxGeometry x="-38" y="580" width="110" height="70" as="geometry" />
        </mxCell>
        <mxCell id="7EcD6YeMjh5JOxx-mbjC-6" style="edgeStyle=orthogonalEdgeStyle;rounded=0;orthogonalLoop=1;jettySize=auto;html=1;exitX=0.5;exitY=1;exitDx=0;exitDy=0;entryX=0.5;entryY=0;entryDx=0;entryDy=0;" edge="1" parent="4d2z-hPTyXuoOUNdP7N7-3" source="AGS4Acffag1iP77FdVoX-4" target="7EcD6YeMjh5JOxx-mbjC-4">
          <mxGeometry relative="1" as="geometry" />
        </mxCell>
        <mxCell id="AGS4Acffag1iP77FdVoX-4" value="失注" style="rounded=0;whiteSpace=wrap;html=1;fillColor=#E6E6E6;fontFamily=メイリオ;" parent="4d2z-hPTyXuoOUNdP7N7-3" vertex="1">
          <mxGeometry x="283" y="464" width="95" height="35" as="geometry" />
        </mxCell>
        <mxCell id="AGS4Acffag1iP77FdVoX-8" style="edgeStyle=orthogonalEdgeStyle;rounded=0;orthogonalLoop=1;jettySize=auto;html=1;exitX=0.5;exitY=1;exitDx=0;exitDy=0;entryX=0.5;entryY=0;entryDx=0;entryDy=0;fontFamily=メイリオ;" parent="4d2z-hPTyXuoOUNdP7N7-3" source="AGS4Acffag1iP77FdVoX-6" target="ep-Ipgn7JQY2wO0V79qC-3" edge="1">
          <mxGeometry relative="1" as="geometry" />
        </mxCell>
        <mxCell id="AGS4Acffag1iP77FdVoX-6" value="要員選定" style="rounded=0;whiteSpace=wrap;html=1;fillColor=#E6E6E6;fontFamily=メイリオ;" parent="4d2z-hPTyXuoOUNdP7N7-3" vertex="1">
          <mxGeometry x="169.5" y="146" width="95" height="35" as="geometry" />
        </mxCell>
        <mxCell id="TsxlSzLxPczDUt5ix8io-1" value="&lt;font style=&quot;font-size: 18px;&quot; color=&quot;#ffffff&quot;&gt;&lt;b&gt;要員&lt;/b&gt;&lt;/font&gt;" style="shape=cylinder3;whiteSpace=wrap;html=1;boundedLbl=1;backgroundOutline=1;size=15;fillColor=#007FFF;fontFamily=メイリオ;" parent="4d2z-hPTyXuoOUNdP7N7-3" vertex="1">
          <mxGeometry x="249.75" y="1547.5" width="110" height="70" as="geometry" />
        </mxCell>
        <mxCell id="OLlgyJuXYVd8tMOlTWdF-6" value="終了" style="ellipse;whiteSpace=wrap;html=1;fontFamily=メイリオ;" parent="4d2z-hPTyXuoOUNdP7N7-3" vertex="1">
          <mxGeometry x="90.25" y="1720" width="95" height="50" as="geometry" />
        </mxCell>
        <mxCell id="5VYHyZ97xjCam4TJDJ00-3" style="edgeStyle=orthogonalEdgeStyle;rounded=0;orthogonalLoop=1;jettySize=auto;html=1;exitX=0;exitY=0.5;exitDx=0;exitDy=0;entryX=0.5;entryY=0;entryDx=0;entryDy=0;entryPerimeter=0;dashed=1;fontFamily=メイリオ;" edge="1" parent="4d2z-hPTyXuoOUNdP7N7-3" source="5VYHyZ97xjCam4TJDJ00-1" target="ep-Ipgn7JQY2wO0V79qC-7">
          <mxGeometry relative="1" as="geometry" />
        </mxCell>
        <mxCell id="5VYHyZ97xjCam4TJDJ00-5" style="edgeStyle=orthogonalEdgeStyle;rounded=0;orthogonalLoop=1;jettySize=auto;html=1;exitX=0.5;exitY=1;exitDx=0;exitDy=0;entryX=0.5;entryY=0;entryDx=0;entryDy=0;fontFamily=メイリオ;" edge="1" parent="4d2z-hPTyXuoOUNdP7N7-3" source="5VYHyZ97xjCam4TJDJ00-1" target="5VYHyZ97xjCam4TJDJ00-4">
          <mxGeometry relative="1" as="geometry" />
        </mxCell>
        <mxCell id="5VYHyZ97xjCam4TJDJ00-1" value="見積書作成" style="rounded=0;whiteSpace=wrap;html=1;fillColor=#E6E6E6;fontFamily=メイリオ;" vertex="1" parent="4d2z-hPTyXuoOUNdP7N7-3">
          <mxGeometry x="52" y="324" width="95" height="35" as="geometry" />
        </mxCell>
        <mxCell id="5VYHyZ97xjCam4TJDJ00-6" style="edgeStyle=orthogonalEdgeStyle;rounded=0;orthogonalLoop=1;jettySize=auto;html=1;exitX=0;exitY=0.5;exitDx=0;exitDy=0;entryX=0.5;entryY=0;entryDx=0;entryDy=0;entryPerimeter=0;dashed=1;fontFamily=メイリオ;" edge="1" parent="4d2z-hPTyXuoOUNdP7N7-3" source="5VYHyZ97xjCam4TJDJ00-4" target="bXa9ik0QpTQZWGHiXE9w-3">
          <mxGeometry relative="1" as="geometry" />
        </mxCell>
        <mxCell id="5VYHyZ97xjCam4TJDJ00-7" style="edgeStyle=orthogonalEdgeStyle;rounded=0;orthogonalLoop=1;jettySize=auto;html=1;exitX=0.5;exitY=1;exitDx=0;exitDy=0;entryX=0.5;entryY=0;entryDx=0;entryDy=0;fontFamily=メイリオ;" edge="1" parent="4d2z-hPTyXuoOUNdP7N7-3" source="5VYHyZ97xjCam4TJDJ00-4" target="CgkbCNKffJWYKyCrZS3h-4">
          <mxGeometry relative="1" as="geometry" />
        </mxCell>
        <mxCell id="5VYHyZ97xjCam4TJDJ00-4" value="案件情報更新" style="rounded=0;whiteSpace=wrap;html=1;fillColor=#E6E6E6;fontFamily=メイリオ;" vertex="1" parent="4d2z-hPTyXuoOUNdP7N7-3">
          <mxGeometry x="52.5" y="534" width="95" height="35" as="geometry" />
        </mxCell>
        <mxCell id="5VYHyZ97xjCam4TJDJ00-14" style="edgeStyle=orthogonalEdgeStyle;rounded=0;orthogonalLoop=1;jettySize=auto;html=1;exitX=1;exitY=0.5;exitDx=0;exitDy=0;entryX=0.5;entryY=0;entryDx=0;entryDy=0;entryPerimeter=0;dashed=1;fontFamily=メイリオ;" edge="1" parent="4d2z-hPTyXuoOUNdP7N7-3" source="5VYHyZ97xjCam4TJDJ00-8" target="CgkbCNKffJWYKyCrZS3h-12">
          <mxGeometry relative="1" as="geometry" />
        </mxCell>
        <mxCell id="5VYHyZ97xjCam4TJDJ00-16" style="edgeStyle=orthogonalEdgeStyle;rounded=0;orthogonalLoop=1;jettySize=auto;html=1;exitX=0.5;exitY=1;exitDx=0;exitDy=0;entryX=0.5;entryY=0;entryDx=0;entryDy=0;fontFamily=メイリオ;" edge="1" parent="4d2z-hPTyXuoOUNdP7N7-3" source="5VYHyZ97xjCam4TJDJ00-8" target="5VYHyZ97xjCam4TJDJ00-15">
          <mxGeometry relative="1" as="geometry" />
        </mxCell>
        <mxCell id="5VYHyZ97xjCam4TJDJ00-8" value="案件情報更新" style="rounded=0;whiteSpace=wrap;html=1;fillColor=#E6E6E6;fontFamily=メイリオ;" vertex="1" parent="4d2z-hPTyXuoOUNdP7N7-3">
          <mxGeometry x="53" y="829" width="95" height="35" as="geometry" />
        </mxCell>
        <mxCell id="5VYHyZ97xjCam4TJDJ00-12" style="edgeStyle=orthogonalEdgeStyle;rounded=0;orthogonalLoop=1;jettySize=auto;html=1;exitX=0.5;exitY=1;exitDx=0;exitDy=0;entryX=0.5;entryY=0;entryDx=0;entryDy=0;fontFamily=メイリオ;" edge="1" parent="4d2z-hPTyXuoOUNdP7N7-3" source="5VYHyZ97xjCam4TJDJ00-11" target="AGS4Acffag1iP77FdVoX-4">
          <mxGeometry relative="1" as="geometry" />
        </mxCell>
        <mxCell id="0n6pLK1D_HdYB_-zyVy8-2" style="edgeStyle=orthogonalEdgeStyle;rounded=0;orthogonalLoop=1;jettySize=auto;html=1;exitX=0;exitY=0.5;exitDx=0;exitDy=0;entryX=0.5;entryY=0;entryDx=0;entryDy=0;entryPerimeter=0;dashed=1;fontFamily=メイリオ;" edge="1" parent="4d2z-hPTyXuoOUNdP7N7-3" source="5VYHyZ97xjCam4TJDJ00-11" target="ep-Ipgn7JQY2wO0V79qC-5">
          <mxGeometry relative="1" as="geometry" />
        </mxCell>
        <mxCell id="5VYHyZ97xjCam4TJDJ00-11" value="案件情報更新" style="rounded=0;whiteSpace=wrap;html=1;fillColor=#E6E6E6;fontFamily=メイリオ;" vertex="1" parent="4d2z-hPTyXuoOUNdP7N7-3">
          <mxGeometry x="283" y="324" width="95" height="35" as="geometry" />
        </mxCell>
        <mxCell id="ep-Ipgn7JQY2wO0V79qC-6" value="No" style="edgeStyle=orthogonalEdgeStyle;rounded=0;orthogonalLoop=1;jettySize=auto;html=1;exitX=1;exitY=0.5;exitDx=0;exitDy=0;entryX=0.5;entryY=0;entryDx=0;entryDy=0;fontFamily=メイリオ;" parent="4d2z-hPTyXuoOUNdP7N7-3" source="ep-Ipgn7JQY2wO0V79qC-3" target="5VYHyZ97xjCam4TJDJ00-11" edge="1">
          <mxGeometry x="0.2271" relative="1" as="geometry">
            <mxPoint x="352" y="324" as="targetPoint" />
            <mxPoint as="offset" />
          </mxGeometry>
        </mxCell>
        <mxCell id="5VYHyZ97xjCam4TJDJ00-15" value="終了" style="ellipse;whiteSpace=wrap;html=1;fontFamily=メイリオ;" vertex="1" parent="4d2z-hPTyXuoOUNdP7N7-3">
          <mxGeometry x="55" y="910" width="90" height="60" as="geometry" />
        </mxCell>
        <mxCell id="0n6pLK1D_HdYB_-zyVy8-5" style="edgeStyle=orthogonalEdgeStyle;rounded=0;orthogonalLoop=1;jettySize=auto;html=1;exitX=1;exitY=0.5;exitDx=0;exitDy=0;entryX=0.5;entryY=0;entryDx=0;entryDy=0;entryPerimeter=0;dashed=1;fontFamily=メイリオ;" edge="1" parent="4d2z-hPTyXuoOUNdP7N7-3" source="5VYHyZ97xjCam4TJDJ00-17" target="CgkbCNKffJWYKyCrZS3h-18">
          <mxGeometry relative="1" as="geometry" />
        </mxCell>
        <mxCell id="7EcD6YeMjh5JOxx-mbjC-8" style="edgeStyle=orthogonalEdgeStyle;rounded=0;orthogonalLoop=1;jettySize=auto;html=1;exitX=0.5;exitY=1;exitDx=0;exitDy=0;entryX=0.5;entryY=0;entryDx=0;entryDy=0;" edge="1" parent="4d2z-hPTyXuoOUNdP7N7-3" source="5VYHyZ97xjCam4TJDJ00-17" target="7EcD6YeMjh5JOxx-mbjC-7">
          <mxGeometry relative="1" as="geometry" />
        </mxCell>
        <mxCell id="5VYHyZ97xjCam4TJDJ00-17" value="案件情報更新" style="rounded=0;whiteSpace=wrap;html=1;fillColor=#E6E6E6;fontFamily=メイリオ;" vertex="1" parent="4d2z-hPTyXuoOUNdP7N7-3">
          <mxGeometry x="88.75" y="1260" width="95" height="35" as="geometry" />
        </mxCell>
        <mxCell id="ffD7-tEqY-V_3M3eM5B6-5" value="・件名&lt;br&gt;・納期&lt;br&gt;・支払い条件&lt;br&gt;・有効期限&lt;br&gt;・合計&lt;br&gt;・概要&lt;br&gt;・数量&lt;br&gt;・単位&lt;br&gt;・単価&lt;br&gt;・金額&lt;br&gt;・小計消費税&lt;br&gt;・合計&lt;br&gt;・備考" style="shape=callout;whiteSpace=wrap;html=1;perimeter=calloutPerimeter;size=30;position=0.52;direction=north;base=20;align=left;fontFamily=メイリオ;" vertex="1" parent="4d2z-hPTyXuoOUNdP7N7-3">
          <mxGeometry x="-148" y="264" width="130" height="210" as="geometry" />
        </mxCell>
        <mxCell id="ffD7-tEqY-V_3M3eM5B6-9" style="edgeStyle=orthogonalEdgeStyle;rounded=0;orthogonalLoop=1;jettySize=auto;html=1;exitX=1;exitY=0.5;exitDx=0;exitDy=0;entryX=0.5;entryY=0;entryDx=0;entryDy=0;entryPerimeter=0;dashed=1;fontFamily=メイリオ;" edge="1" parent="4d2z-hPTyXuoOUNdP7N7-3" source="ffD7-tEqY-V_3M3eM5B6-7" target="TsxlSzLxPczDUt5ix8io-1">
          <mxGeometry relative="1" as="geometry" />
        </mxCell>
        <mxCell id="7EcD6YeMjh5JOxx-mbjC-12" style="edgeStyle=orthogonalEdgeStyle;rounded=0;orthogonalLoop=1;jettySize=auto;html=1;exitX=0.5;exitY=1;exitDx=0;exitDy=0;entryX=0.5;entryY=0;entryDx=0;entryDy=0;" edge="1" parent="4d2z-hPTyXuoOUNdP7N7-3" source="ffD7-tEqY-V_3M3eM5B6-7" target="7EcD6YeMjh5JOxx-mbjC-10">
          <mxGeometry relative="1" as="geometry" />
        </mxCell>
        <mxCell id="ffD7-tEqY-V_3M3eM5B6-7" value="要員情報更新" style="rounded=0;whiteSpace=wrap;html=1;fillColor=#E6E6E6;fontFamily=メイリオ;" vertex="1" parent="4d2z-hPTyXuoOUNdP7N7-3">
          <mxGeometry x="89.25" y="1495.5" width="95" height="35" as="geometry" />
        </mxCell>
        <mxCell id="yqbfMocQtibjuYxWAJjp-5" style="edgeStyle=orthogonalEdgeStyle;rounded=0;orthogonalLoop=1;jettySize=auto;html=1;exitX=1;exitY=0.5;exitDx=0;exitDy=0;entryX=0.5;entryY=0;entryDx=0;entryDy=0;entryPerimeter=0;dashed=1;fontFamily=メイリオ;" edge="1" parent="4d2z-hPTyXuoOUNdP7N7-3" source="7EcD6YeMjh5JOxx-mbjC-7" target="yqbfMocQtibjuYxWAJjp-3">
          <mxGeometry relative="1" as="geometry">
            <mxPoint x="179.9999999999999" y="1307.5" as="sourcePoint" />
          </mxGeometry>
        </mxCell>
        <mxCell id="yqbfMocQtibjuYxWAJjp-3" value="&lt;font style=&quot;font-size: 18px;&quot; color=&quot;#ffffff&quot;&gt;&lt;b&gt;契約&lt;/b&gt;&lt;/font&gt;" style="shape=cylinder3;whiteSpace=wrap;html=1;boundedLbl=1;backgroundOutline=1;size=15;fillColor=#007FFF;fontFamily=メイリオ;" vertex="1" parent="4d2z-hPTyXuoOUNdP7N7-3">
          <mxGeometry x="249.75" y="1428.5" width="110" height="70" as="geometry" />
        </mxCell>
        <mxCell id="ep-Ipgn7JQY2wO0V79qC-5" value="&lt;font style=&quot;font-size: 18px;&quot; color=&quot;#ffffff&quot;&gt;&lt;b&gt;案件&lt;/b&gt;&lt;/font&gt;" style="shape=cylinder3;whiteSpace=wrap;html=1;boundedLbl=1;backgroundOutline=1;size=15;fillColor=#007FFF;fontFamily=メイリオ;" parent="4d2z-hPTyXuoOUNdP7N7-3" vertex="1">
          <mxGeometry x="162.5" y="384" width="110" height="70" as="geometry" />
        </mxCell>
        <mxCell id="0n6pLK1D_HdYB_-zyVy8-3" value="ステータス＝失注" style="shape=callout;whiteSpace=wrap;html=1;perimeter=calloutPerimeter;direction=west;size=20;position=0.5;fontFamily=メイリオ;" vertex="1" parent="4d2z-hPTyXuoOUNdP7N7-3">
          <mxGeometry x="140" y="454" width="120" height="60" as="geometry" />
        </mxCell>
        <mxCell id="t-mkSCVMgoyk6I8kGOYo-3" value="" style="edgeStyle=orthogonalEdgeStyle;rounded=0;orthogonalLoop=1;jettySize=auto;html=1;exitX=0.5;exitY=0;exitDx=0;exitDy=0;exitPerimeter=0;entryX=0;entryY=0.5;entryDx=0;entryDy=0;dashed=1;fontFamily=メイリオ;" edge="1" parent="4d2z-hPTyXuoOUNdP7N7-3" source="t-mkSCVMgoyk6I8kGOYo-2" target="AGS4Acffag1iP77FdVoX-6">
          <mxGeometry relative="1" as="geometry" />
        </mxCell>
        <mxCell id="t-mkSCVMgoyk6I8kGOYo-2" value="&lt;font style=&quot;font-size: 18px;&quot; color=&quot;#ffffff&quot;&gt;&lt;b&gt;要員&lt;/b&gt;&lt;/font&gt;" style="shape=cylinder3;whiteSpace=wrap;html=1;boundedLbl=1;backgroundOutline=1;size=15;fillColor=#007FFF;fontFamily=メイリオ;" vertex="1" parent="4d2z-hPTyXuoOUNdP7N7-3">
          <mxGeometry x="-48" y="194" width="120" height="70" as="geometry" />
        </mxCell>
        <mxCell id="_DOSDbKWtSQ7XRB5Dhx7-1" value="開始" style="ellipse;whiteSpace=wrap;html=1;fontFamily=メイリオ;" vertex="1" parent="4d2z-hPTyXuoOUNdP7N7-3">
          <mxGeometry x="172" y="40" width="90" height="60" as="geometry" />
        </mxCell>
        <mxCell id="_DOSDbKWtSQ7XRB5Dhx7-2" style="edgeStyle=orthogonalEdgeStyle;rounded=0;orthogonalLoop=1;jettySize=auto;html=1;exitX=0.5;exitY=1;exitDx=0;exitDy=0;entryX=0.5;entryY=0;entryDx=0;entryDy=0;" edge="1" parent="4d2z-hPTyXuoOUNdP7N7-3" source="_DOSDbKWtSQ7XRB5Dhx7-1" target="AGS4Acffag1iP77FdVoX-6">
          <mxGeometry relative="1" as="geometry" />
        </mxCell>
        <mxCell id="7EcD6YeMjh5JOxx-mbjC-4" value="終了" style="ellipse;whiteSpace=wrap;html=1;fontFamily=メイリオ;" vertex="1" parent="4d2z-hPTyXuoOUNdP7N7-3">
          <mxGeometry x="285.5" y="540" width="90" height="60" as="geometry" />
        </mxCell>
        <mxCell id="7EcD6YeMjh5JOxx-mbjC-9" style="edgeStyle=orthogonalEdgeStyle;rounded=0;orthogonalLoop=1;jettySize=auto;html=1;exitX=0.5;exitY=1;exitDx=0;exitDy=0;entryX=0.5;entryY=0;entryDx=0;entryDy=0;" edge="1" parent="4d2z-hPTyXuoOUNdP7N7-3" source="7EcD6YeMjh5JOxx-mbjC-7" target="ffD7-tEqY-V_3M3eM5B6-7">
          <mxGeometry relative="1" as="geometry" />
        </mxCell>
        <mxCell id="7EcD6YeMjh5JOxx-mbjC-7" value="契約情報&lt;br&gt;新規作成" style="rounded=0;whiteSpace=wrap;html=1;fillColor=#E6E6E6;fontFamily=メイリオ;" vertex="1" parent="4d2z-hPTyXuoOUNdP7N7-3">
          <mxGeometry x="88.75" y="1380" width="95" height="35" as="geometry" />
        </mxCell>
        <mxCell id="7EcD6YeMjh5JOxx-mbjC-13" style="edgeStyle=orthogonalEdgeStyle;rounded=0;orthogonalLoop=1;jettySize=auto;html=1;exitX=0.5;exitY=1;exitDx=0;exitDy=0;entryX=0.5;entryY=0;entryDx=0;entryDy=0;" edge="1" parent="4d2z-hPTyXuoOUNdP7N7-3" source="7EcD6YeMjh5JOxx-mbjC-10" target="OLlgyJuXYVd8tMOlTWdF-6">
          <mxGeometry relative="1" as="geometry" />
        </mxCell>
        <mxCell id="7EcD6YeMjh5JOxx-mbjC-10" value="システム部へ&lt;br&gt;報告" style="rounded=0;whiteSpace=wrap;html=1;fillColor=#E6E6E6;fontFamily=メイリオ;" vertex="1" parent="4d2z-hPTyXuoOUNdP7N7-3">
          <mxGeometry x="89.75" y="1640" width="95" height="35" as="geometry" />
        </mxCell>
        <mxCell id="CgkbCNKffJWYKyCrZS3h-7" style="edgeStyle=orthogonalEdgeStyle;rounded=0;orthogonalLoop=1;jettySize=auto;html=1;exitX=0;exitY=0.5;exitDx=0;exitDy=0;entryX=1;entryY=0.5;entryDx=0;entryDy=0;fontFamily=メイリオ;" parent="4d2z-hPTyXuoOUNdP7N7-1" source="CgkbCNKffJWYKyCrZS3h-4" target="CgkbCNKffJWYKyCrZS3h-6" edge="1">
          <mxGeometry relative="1" as="geometry" />
        </mxCell>
        <mxCell id="CgkbCNKffJWYKyCrZS3h-19" style="edgeStyle=orthogonalEdgeStyle;rounded=0;orthogonalLoop=1;jettySize=auto;html=1;exitX=0.5;exitY=1;exitDx=0;exitDy=0;entryX=0.5;entryY=0;entryDx=0;entryDy=0;fontFamily=メイリオ;" parent="4d2z-hPTyXuoOUNdP7N7-1" source="CgkbCNKffJWYKyCrZS3h-10" target="5VYHyZ97xjCam4TJDJ00-17" edge="1">
          <mxGeometry relative="1" as="geometry">
            <mxPoint x="262" y="1094" as="targetPoint" />
            <Array as="points">
              <mxPoint x="132" y="1190" />
              <mxPoint x="326" y="1190" />
            </Array>
          </mxGeometry>
        </mxCell>
        <mxCell id="AGS4Acffag1iP77FdVoX-7" style="edgeStyle=orthogonalEdgeStyle;rounded=0;orthogonalLoop=1;jettySize=auto;html=1;exitX=0;exitY=0.5;exitDx=0;exitDy=0;fontFamily=メイリオ;" parent="4d2z-hPTyXuoOUNdP7N7-1" source="5VYHyZ97xjCam4TJDJ00-9" target="AGS4Acffag1iP77FdVoX-6" edge="1">
          <mxGeometry relative="1" as="geometry">
            <mxPoint x="702" y="184" as="sourcePoint" />
          </mxGeometry>
        </mxCell>
        <mxCell id="4d2z-hPTyXuoOUNdP7N7-4" value="営業事務" style="swimlane;startSize=30;html=1;fontFamily=メイリオ;" parent="4d2z-hPTyXuoOUNdP7N7-1" vertex="1">
          <mxGeometry x="590" y="20" width="200" height="1840" as="geometry" />
        </mxCell>
        <mxCell id="4d2z-hPTyXuoOUNdP7N7-6" value="&lt;font style=&quot;font-size: 18px;&quot; color=&quot;#ffffff&quot;&gt;&lt;b&gt;要員&lt;/b&gt;&lt;/font&gt;" style="shape=cylinder3;whiteSpace=wrap;html=1;boundedLbl=1;backgroundOutline=1;size=15;fillColor=#007FFF;fontFamily=メイリオ;" parent="4d2z-hPTyXuoOUNdP7N7-4" vertex="1">
          <mxGeometry x="39.5" y="224" width="120" height="80" as="geometry" />
        </mxCell>
        <mxCell id="0n6pLK1D_HdYB_-zyVy8-4" style="edgeStyle=orthogonalEdgeStyle;rounded=0;orthogonalLoop=1;jettySize=auto;html=1;exitX=0.5;exitY=1;exitDx=0;exitDy=0;entryX=0.5;entryY=0;entryDx=0;entryDy=0;entryPerimeter=0;dashed=1;fontFamily=メイリオ;" edge="1" parent="4d2z-hPTyXuoOUNdP7N7-4" source="5VYHyZ97xjCam4TJDJ00-9" target="4d2z-hPTyXuoOUNdP7N7-6">
          <mxGeometry relative="1" as="geometry" />
        </mxCell>
        <mxCell id="5VYHyZ97xjCam4TJDJ00-9" value="要員一覧作成" style="rounded=0;whiteSpace=wrap;html=1;fillColor=#E6E6E6;fontFamily=メイリオ;" vertex="1" parent="4d2z-hPTyXuoOUNdP7N7-4">
          <mxGeometry x="52" y="146" width="95" height="35" as="geometry" />
        </mxCell>
        <mxCell id="RLPgfjMIlKf8fK8N81-h-1" value="ステータス＝交渉中" style="shape=callout;whiteSpace=wrap;html=1;perimeter=calloutPerimeter;direction=south;position2=1;fontFamily=メイリオ;" vertex="1" parent="4d2z-hPTyXuoOUNdP7N7-4">
          <mxGeometry x="-98" y="844" width="160" height="50" as="geometry" />
        </mxCell>
        <mxCell id="RLPgfjMIlKf8fK8N81-h-4" value="&lt;div style=&quot;border-color: var(--border-color); text-align: justify;&quot;&gt;&lt;/div&gt;&lt;span style=&quot;border-color: var(--border-color); background-color: initial;&quot;&gt;&lt;/span&gt;&lt;blockquote style=&quot;border: none; margin: 0px 0px 0px 40px; padding: 0px;&quot;&gt;&lt;/blockquote&gt;&lt;span style=&quot;border-color: var(--border-color); background-color: initial;&quot;&gt;&lt;div style=&quot;border-color: var(--border-color); text-align: justify;&quot;&gt;&lt;span style=&quot;border-color: var(--border-color); background-color: initial;&quot;&gt;・氏名&lt;/span&gt;&lt;/div&gt;&lt;/span&gt;&lt;blockquote style=&quot;border: none; margin: 0px 0px 0px 40px; padding: 0px;&quot;&gt;&lt;/blockquote&gt;&lt;span style=&quot;border-color: var(--border-color); background-color: initial;&quot;&gt;&lt;div style=&quot;border-color: var(--border-color); text-align: justify;&quot;&gt;&lt;span style=&quot;border-color: var(--border-color); background-color: initial;&quot;&gt;・年齢&lt;/span&gt;&lt;/div&gt;&lt;/span&gt;&lt;blockquote style=&quot;border: none; margin: 0px 0px 0px 40px; padding: 0px;&quot;&gt;&lt;/blockquote&gt;&lt;span style=&quot;border-color: var(--border-color); background-color: initial;&quot;&gt;&lt;div style=&quot;border-color: var(--border-color); text-align: justify;&quot;&gt;&lt;span style=&quot;border-color: var(--border-color); background-color: initial;&quot;&gt;・メールアドレス&lt;/span&gt;&lt;/div&gt;&lt;/span&gt;&lt;blockquote style=&quot;border: none; margin: 0px 0px 0px 40px; padding: 0px;&quot;&gt;&lt;/blockquote&gt;&lt;span style=&quot;border-color: var(--border-color); background-color: initial;&quot;&gt;&lt;div style=&quot;border-color: var(--border-color); text-align: justify;&quot;&gt;&lt;span style=&quot;border-color: var(--border-color); background-color: initial;&quot;&gt;・電話番号&lt;/span&gt;&lt;/div&gt;&lt;/span&gt;&lt;blockquote style=&quot;border: none; margin: 0px 0px 0px 40px; padding: 0px;&quot;&gt;&lt;/blockquote&gt;&lt;span style=&quot;border-color: var(--border-color); background-color: initial;&quot;&gt;&lt;div style=&quot;border-color: var(--border-color); text-align: justify;&quot;&gt;&lt;span style=&quot;border-color: var(--border-color); background-color: initial;&quot;&gt;・役職&lt;/span&gt;&lt;/div&gt;&lt;/span&gt;&lt;blockquote style=&quot;border: none; margin: 0px 0px 0px 40px; padding: 0px;&quot;&gt;&lt;/blockquote&gt;&lt;span style=&quot;border-color: var(--border-color); background-color: initial;&quot;&gt;&lt;div style=&quot;border-color: var(--border-color); text-align: justify;&quot;&gt;&lt;span style=&quot;border-color: var(--border-color); background-color: initial;&quot;&gt;・状況&lt;/span&gt;&lt;/div&gt;&lt;/span&gt;&lt;blockquote style=&quot;border: none; margin: 0px 0px 0px 40px; padding: 0px;&quot;&gt;&lt;/blockquote&gt;&lt;span style=&quot;border-color: var(--border-color); background-color: initial;&quot;&gt;&lt;div style=&quot;border-color: var(--border-color); text-align: justify;&quot;&gt;&lt;span style=&quot;border-color: var(--border-color); background-color: initial;&quot;&gt;・標準単価&lt;/span&gt;&lt;/div&gt;&lt;/span&gt;&lt;blockquote style=&quot;border: none; margin: 0px 0px 0px 40px; padding: 0px;&quot;&gt;&lt;/blockquote&gt;&lt;span style=&quot;border-color: var(--border-color); background-color: initial;&quot;&gt;&lt;div style=&quot;border-color: var(--border-color); text-align: justify;&quot;&gt;&lt;span style=&quot;border-color: var(--border-color); background-color: initial;&quot;&gt;・標準原価&lt;/span&gt;&lt;/div&gt;&lt;/span&gt;&lt;div style=&quot;border-color: var(--border-color); text-align: justify;&quot;&gt;&lt;span style=&quot;border-color: var(--border-color); background-color: initial;&quot;&gt;・スキル情報&lt;/span&gt;&lt;/div&gt;&lt;div style=&quot;border-color: var(--border-color); text-align: justify;&quot;&gt;&lt;span style=&quot;border-color: var(--border-color); background-color: initial;&quot;&gt;（言語・CB・OS）&lt;/span&gt;&lt;/div&gt;" style="shape=callout;whiteSpace=wrap;html=1;perimeter=calloutPerimeter;direction=west;fontFamily=メイリオ;" vertex="1" parent="4d2z-hPTyXuoOUNdP7N7-4">
          <mxGeometry x="39.5" y="294" width="120" height="220" as="geometry" />
        </mxCell>
        <mxCell id="RLPgfjMIlKf8fK8N81-h-5" value="ステータス＝受注" style="shape=callout;whiteSpace=wrap;html=1;perimeter=calloutPerimeter;direction=south;position2=1;fontFamily=メイリオ;" vertex="1" parent="4d2z-hPTyXuoOUNdP7N7-4">
          <mxGeometry x="-57.5" y="1290" width="160" height="50" as="geometry" />
        </mxCell>
        <mxCell id="RLPgfjMIlKf8fK8N81-h-6" value="・クライアント&lt;br&gt;・案件名&lt;br&gt;・期間From&lt;br&gt;・期間To&lt;br&gt;・人月&lt;br&gt;・単価&lt;br&gt;・売上&lt;br&gt;・利益" style="shape=callout;whiteSpace=wrap;html=1;perimeter=calloutPerimeter;direction=south;position2=0.4;size=40;position=0.15;align=left;fontFamily=メイリオ;" vertex="1" parent="4d2z-hPTyXuoOUNdP7N7-4">
          <mxGeometry x="-67.5" y="1530" width="160" height="150" as="geometry" />
        </mxCell>
        <mxCell id="SOmXxq1O9jwyrW44La1z-2" value="&lt;div style=&quot;border-color: var(--border-color);&quot;&gt;・クライアント&lt;/div&gt;&lt;div style=&quot;border-color: var(--border-color);&quot;&gt;・契約名&lt;/div&gt;&lt;div style=&quot;border-color: var(--border-color);&quot;&gt;&lt;span style=&quot;border-color: var(--border-color); background-color: initial;&quot;&gt;・契約概要&lt;/span&gt;&lt;/div&gt;&lt;div style=&quot;border-color: var(--border-color);&quot;&gt;&lt;span style=&quot;border-color: var(--border-color); background-color: initial;&quot;&gt;・要員数&lt;/span&gt;&lt;/div&gt;&lt;div style=&quot;border-color: var(--border-color);&quot;&gt;&lt;span style=&quot;border-color: var(--border-color); background-color: initial;&quot;&gt;・スキル&lt;/span&gt;&lt;/div&gt;&lt;div style=&quot;border-color: var(--border-color);&quot;&gt;&lt;span style=&quot;border-color: var(--border-color); background-color: initial;&quot;&gt;・期間From&lt;/span&gt;&lt;/div&gt;&lt;div style=&quot;border-color: var(--border-color);&quot;&gt;&lt;span style=&quot;border-color: var(--border-color); background-color: initial;&quot;&gt;・期間To&lt;/span&gt;&lt;/div&gt;&lt;div style=&quot;border-color: var(--border-color);&quot;&gt;&lt;span style=&quot;border-color: var(--border-color); background-color: initial;&quot;&gt;・ステータス&lt;/span&gt;&lt;/div&gt;&lt;div style=&quot;border-color: var(--border-color);&quot;&gt;&lt;span style=&quot;border-color: var(--border-color); background-color: initial;&quot;&gt;・備考&lt;/span&gt;&lt;/div&gt;" style="shape=callout;whiteSpace=wrap;html=1;perimeter=calloutPerimeter;direction=south;position2=0.6;size=30;position=0.33;base=31;align=left;fontFamily=メイリオ;" vertex="1" parent="4d2z-hPTyXuoOUNdP7N7-4">
          <mxGeometry x="-57.5" y="1360" width="160" height="150" as="geometry" />
        </mxCell>
        <mxCell id="7EcD6YeMjh5JOxx-mbjC-3" value="No" style="edgeStyle=orthogonalEdgeStyle;rounded=0;orthogonalLoop=1;jettySize=auto;html=1;exitX=1;exitY=0.5;exitDx=0;exitDy=0;entryX=0;entryY=0.5;entryDx=0;entryDy=0;" edge="1" parent="4d2z-hPTyXuoOUNdP7N7-1" source="CgkbCNKffJWYKyCrZS3h-8" target="5VYHyZ97xjCam4TJDJ00-8">
          <mxGeometry relative="1" as="geometry" />
        </mxCell>
        <mxCell id="RLPgfjMIlKf8fK8N81-h-3" value="ステータス＝提案中" style="shape=callout;whiteSpace=wrap;html=1;perimeter=calloutPerimeter;direction=north;position2=0.33;fontFamily=メイリオ;" vertex="1" parent="1">
          <mxGeometry x="60" y="-1726" width="160" height="60" as="geometry" />
        </mxCell>
      </root>
    </mxGraphModel>
  </diagram>
  <diagram id="w17EY7a9lUCxT96ASvQw" name="提案交渉">
    <mxGraphModel dx="1607" dy="1945" grid="1" gridSize="10" guides="1" tooltips="1" connect="1" arrows="1" fold="1" page="1" pageScale="1" pageWidth="827" pageHeight="1169" math="0" shadow="0">
      <root>
        <mxCell id="0" />
        <mxCell id="1" parent="0" />
        <mxCell id="5ZsLxz6eY7mTCzfrgvc2-1" value="4. 提案交渉" style="swimlane;childLayout=stackLayout;resizeParent=1;resizeParentMax=0;startSize=20;html=1;fontFamily=メイリオ;" parent="1" vertex="1">
          <mxGeometry x="14" y="-1136" width="800" height="2890" as="geometry" />
        </mxCell>
        <mxCell id="5ZsLxz6eY7mTCzfrgvc2-2" value="顧客" style="swimlane;startSize=40;html=1;fontFamily=メイリオ;" parent="5ZsLxz6eY7mTCzfrgvc2-1" vertex="1">
          <mxGeometry y="20" width="160" height="2870" as="geometry" />
        </mxCell>
        <mxCell id="i-0OtGba0ojmxpHckMT0-4" value="ステータス＝失注" style="shape=callout;whiteSpace=wrap;html=1;perimeter=calloutPerimeter;direction=north;fontFamily=メイリオ;" vertex="1" parent="5ZsLxz6eY7mTCzfrgvc2-2">
          <mxGeometry y="1766" width="150" height="60" as="geometry" />
        </mxCell>
        <mxCell id="5ZsLxz6eY7mTCzfrgvc2-3" value="営業本部&lt;br&gt;（事業会社部・SIer部）" style="swimlane;startSize=40;html=1;fontFamily=メイリオ;" parent="5ZsLxz6eY7mTCzfrgvc2-1" vertex="1">
          <mxGeometry x="160" y="20" width="380" height="2870" as="geometry" />
        </mxCell>
        <mxCell id="5ZsLxz6eY7mTCzfrgvc2-8" style="edgeStyle=orthogonalEdgeStyle;rounded=0;orthogonalLoop=1;jettySize=auto;html=1;exitX=0.5;exitY=1;exitDx=0;exitDy=0;entryX=0.5;entryY=0;entryDx=0;entryDy=0;fontFamily=メイリオ;" parent="5ZsLxz6eY7mTCzfrgvc2-3" source="5ZsLxz6eY7mTCzfrgvc2-6" target="5ZsLxz6eY7mTCzfrgvc2-7" edge="1">
          <mxGeometry relative="1" as="geometry" />
        </mxCell>
        <mxCell id="5ZsLxz6eY7mTCzfrgvc2-6" value="開始" style="ellipse;whiteSpace=wrap;html=1;fontFamily=メイリオ;" parent="5ZsLxz6eY7mTCzfrgvc2-3" vertex="1">
          <mxGeometry x="130" y="50" width="120" height="60" as="geometry" />
        </mxCell>
        <mxCell id="5ZsLxz6eY7mTCzfrgvc2-10" value="Yes" style="edgeStyle=orthogonalEdgeStyle;rounded=0;orthogonalLoop=1;jettySize=auto;html=1;exitX=0.5;exitY=1;exitDx=0;exitDy=0;entryX=0.5;entryY=0;entryDx=0;entryDy=0;fontFamily=メイリオ;" parent="5ZsLxz6eY7mTCzfrgvc2-3" source="5ZsLxz6eY7mTCzfrgvc2-7" target="5ZsLxz6eY7mTCzfrgvc2-9" edge="1">
          <mxGeometry relative="1" as="geometry" />
        </mxCell>
        <mxCell id="oO4LKCAVCbXohjBAmY33-6" style="edgeStyle=orthogonalEdgeStyle;rounded=0;orthogonalLoop=1;jettySize=auto;html=1;exitX=1;exitY=0.5;exitDx=0;exitDy=0;entryX=0.5;entryY=0;entryDx=0;entryDy=0;fontFamily=メイリオ;" parent="5ZsLxz6eY7mTCzfrgvc2-3" source="5ZsLxz6eY7mTCzfrgvc2-7" target="oO4LKCAVCbXohjBAmY33-4" edge="1">
          <mxGeometry relative="1" as="geometry">
            <Array as="points">
              <mxPoint x="330" y="210" />
              <mxPoint x="330" y="410" />
              <mxPoint x="190" y="410" />
            </Array>
          </mxGeometry>
        </mxCell>
        <mxCell id="oO4LKCAVCbXohjBAmY33-7" value="No" style="edgeLabel;html=1;align=center;verticalAlign=middle;resizable=0;points=[];fontFamily=メイリオ;" parent="oO4LKCAVCbXohjBAmY33-6" vertex="1" connectable="0">
          <mxGeometry x="-0.387" y="-1" relative="1" as="geometry">
            <mxPoint as="offset" />
          </mxGeometry>
        </mxCell>
        <mxCell id="5ZsLxz6eY7mTCzfrgvc2-7" value="要員変更" style="rhombus;whiteSpace=wrap;html=1;fillColor=#FFFFCC;fontFamily=メイリオ;" parent="5ZsLxz6eY7mTCzfrgvc2-3" vertex="1">
          <mxGeometry x="130" y="170" width="120" height="80" as="geometry" />
        </mxCell>
        <mxCell id="oO4LKCAVCbXohjBAmY33-5" style="edgeStyle=orthogonalEdgeStyle;rounded=0;orthogonalLoop=1;jettySize=auto;html=1;exitX=0.5;exitY=1;exitDx=0;exitDy=0;entryX=0.5;entryY=0;entryDx=0;entryDy=0;fontFamily=メイリオ;" parent="5ZsLxz6eY7mTCzfrgvc2-3" source="5ZsLxz6eY7mTCzfrgvc2-9" target="oO4LKCAVCbXohjBAmY33-4" edge="1">
          <mxGeometry relative="1" as="geometry" />
        </mxCell>
        <mxCell id="5ZsLxz6eY7mTCzfrgvc2-9" value="要員選定" style="rounded=0;whiteSpace=wrap;html=1;fillColor=#E6E6E6;fontFamily=メイリオ;" parent="5ZsLxz6eY7mTCzfrgvc2-3" vertex="1">
          <mxGeometry x="130" y="320" width="120" height="60" as="geometry" />
        </mxCell>
        <mxCell id="oO4LKCAVCbXohjBAmY33-2" style="edgeStyle=orthogonalEdgeStyle;rounded=0;orthogonalLoop=1;jettySize=auto;html=1;exitX=0.5;exitY=1;exitDx=0;exitDy=0;exitPerimeter=0;entryX=0;entryY=0.5;entryDx=0;entryDy=0;dashed=1;fontFamily=メイリオ;" parent="5ZsLxz6eY7mTCzfrgvc2-3" source="oO4LKCAVCbXohjBAmY33-1" target="5ZsLxz6eY7mTCzfrgvc2-9" edge="1">
          <mxGeometry relative="1" as="geometry" />
        </mxCell>
        <mxCell id="oO4LKCAVCbXohjBAmY33-1" value="&lt;font style=&quot;font-size: 18px;&quot; color=&quot;#ffffff&quot;&gt;&lt;b&gt;要員&lt;/b&gt;&lt;/font&gt;" style="shape=cylinder3;whiteSpace=wrap;html=1;boundedLbl=1;backgroundOutline=1;size=15;fillColor=#007FFF;fontFamily=メイリオ;" parent="5ZsLxz6eY7mTCzfrgvc2-3" vertex="1">
          <mxGeometry x="-10" y="250" width="110" height="70" as="geometry" />
        </mxCell>
        <mxCell id="DKEezsGEi6YGIOhxBoTS-2" value="Yes" style="edgeStyle=orthogonalEdgeStyle;rounded=0;orthogonalLoop=1;jettySize=auto;html=1;exitX=0.5;exitY=1;exitDx=0;exitDy=0;entryX=0.5;entryY=0;entryDx=0;entryDy=0;fontFamily=メイリオ;" parent="5ZsLxz6eY7mTCzfrgvc2-3" source="oO4LKCAVCbXohjBAmY33-4" target="DKEezsGEi6YGIOhxBoTS-1" edge="1">
          <mxGeometry relative="1" as="geometry" />
        </mxCell>
        <mxCell id="DKEezsGEi6YGIOhxBoTS-7" value="No" style="edgeStyle=orthogonalEdgeStyle;rounded=0;orthogonalLoop=1;jettySize=auto;html=1;exitX=1;exitY=0.5;exitDx=0;exitDy=0;strokeColor=#999999;entryX=0.5;entryY=0;entryDx=0;entryDy=0;fontFamily=メイリオ;" parent="5ZsLxz6eY7mTCzfrgvc2-3" source="oO4LKCAVCbXohjBAmY33-4" target="DKEezsGEi6YGIOhxBoTS-5" edge="1">
          <mxGeometry x="-0.2292" relative="1" as="geometry">
            <mxPoint x="190" y="820" as="targetPoint" />
            <Array as="points">
              <mxPoint x="320" y="486" />
              <mxPoint x="320" y="870" />
              <mxPoint x="190" y="870" />
            </Array>
            <mxPoint as="offset" />
          </mxGeometry>
        </mxCell>
        <mxCell id="oO4LKCAVCbXohjBAmY33-4" value="提案金額変更" style="rhombus;whiteSpace=wrap;html=1;fillColor=#FFFFCC;fontFamily=メイリオ;" parent="5ZsLxz6eY7mTCzfrgvc2-3" vertex="1">
          <mxGeometry x="130" y="445.5" width="120" height="80" as="geometry" />
        </mxCell>
        <mxCell id="DKEezsGEi6YGIOhxBoTS-4" style="edgeStyle=orthogonalEdgeStyle;rounded=0;orthogonalLoop=1;jettySize=auto;html=1;exitX=0.5;exitY=1;exitDx=0;exitDy=0;entryX=0.5;entryY=0;entryDx=0;entryDy=0;fontFamily=メイリオ;" parent="5ZsLxz6eY7mTCzfrgvc2-3" source="DKEezsGEi6YGIOhxBoTS-1" target="DKEezsGEi6YGIOhxBoTS-3" edge="1">
          <mxGeometry relative="1" as="geometry" />
        </mxCell>
        <mxCell id="DKEezsGEi6YGIOhxBoTS-1" value="提案金額変更" style="rounded=0;whiteSpace=wrap;html=1;fillColor=#E6E6E6;fontFamily=メイリオ;" parent="5ZsLxz6eY7mTCzfrgvc2-3" vertex="1">
          <mxGeometry x="130" y="580" width="120" height="60" as="geometry" />
        </mxCell>
        <mxCell id="DKEezsGEi6YGIOhxBoTS-6" value="Yes" style="edgeStyle=orthogonalEdgeStyle;rounded=0;orthogonalLoop=1;jettySize=auto;html=1;exitX=0.5;exitY=1;exitDx=0;exitDy=0;entryX=0.5;entryY=0;entryDx=0;entryDy=0;fontFamily=メイリオ;" parent="5ZsLxz6eY7mTCzfrgvc2-3" source="DKEezsGEi6YGIOhxBoTS-3" target="DKEezsGEi6YGIOhxBoTS-5" edge="1">
          <mxGeometry x="-0.2857" relative="1" as="geometry">
            <mxPoint as="offset" />
          </mxGeometry>
        </mxCell>
        <mxCell id="DKEezsGEi6YGIOhxBoTS-3" value="提案金額&lt;br&gt;＞&lt;br&gt;標準単価" style="rhombus;whiteSpace=wrap;html=1;fillColor=#FFFFCC;fontFamily=メイリオ;" parent="5ZsLxz6eY7mTCzfrgvc2-3" vertex="1">
          <mxGeometry x="130" y="700" width="120" height="80" as="geometry" />
        </mxCell>
        <mxCell id="DKEezsGEi6YGIOhxBoTS-9" style="edgeStyle=orthogonalEdgeStyle;rounded=0;orthogonalLoop=1;jettySize=auto;html=1;exitX=0;exitY=0.5;exitDx=0;exitDy=0;entryX=0.5;entryY=0;entryDx=0;entryDy=0;entryPerimeter=0;dashed=1;fontFamily=メイリオ;" parent="5ZsLxz6eY7mTCzfrgvc2-3" source="DKEezsGEi6YGIOhxBoTS-5" target="DKEezsGEi6YGIOhxBoTS-8" edge="1">
          <mxGeometry relative="1" as="geometry" />
        </mxCell>
        <mxCell id="DKEezsGEi6YGIOhxBoTS-11" style="edgeStyle=orthogonalEdgeStyle;rounded=0;orthogonalLoop=1;jettySize=auto;html=1;exitX=0.5;exitY=1;exitDx=0;exitDy=0;entryX=0.5;entryY=0;entryDx=0;entryDy=0;fontFamily=メイリオ;" parent="5ZsLxz6eY7mTCzfrgvc2-3" source="DKEezsGEi6YGIOhxBoTS-5" target="DKEezsGEi6YGIOhxBoTS-10" edge="1">
          <mxGeometry relative="1" as="geometry" />
        </mxCell>
        <mxCell id="DKEezsGEi6YGIOhxBoTS-5" value="見積書修正" style="rounded=0;whiteSpace=wrap;html=1;fillColor=#E6E6E6;fontFamily=メイリオ;" parent="5ZsLxz6eY7mTCzfrgvc2-3" vertex="1">
          <mxGeometry x="130" y="920" width="120" height="60" as="geometry" />
        </mxCell>
        <mxCell id="DKEezsGEi6YGIOhxBoTS-8" value="&lt;font color=&quot;#ffffff&quot;&gt;&lt;span style=&quot;font-size: 18px;&quot;&gt;&lt;b&gt;見積&lt;/b&gt;&lt;/span&gt;&lt;/font&gt;" style="shape=cylinder3;whiteSpace=wrap;html=1;boundedLbl=1;backgroundOutline=1;size=15;fillColor=#007FFF;fontFamily=メイリオ;" parent="5ZsLxz6eY7mTCzfrgvc2-3" vertex="1">
          <mxGeometry x="-10" y="980" width="110" height="70" as="geometry" />
        </mxCell>
        <mxCell id="DKEezsGEi6YGIOhxBoTS-13" style="edgeStyle=orthogonalEdgeStyle;rounded=0;orthogonalLoop=1;jettySize=auto;html=1;exitX=0;exitY=0.5;exitDx=0;exitDy=0;entryX=0.5;entryY=0;entryDx=0;entryDy=0;entryPerimeter=0;dashed=1;fontFamily=メイリオ;" parent="5ZsLxz6eY7mTCzfrgvc2-3" source="DKEezsGEi6YGIOhxBoTS-10" target="DKEezsGEi6YGIOhxBoTS-12" edge="1">
          <mxGeometry relative="1" as="geometry" />
        </mxCell>
        <mxCell id="DKEezsGEi6YGIOhxBoTS-15" style="edgeStyle=orthogonalEdgeStyle;rounded=0;orthogonalLoop=1;jettySize=auto;html=1;exitX=0.5;exitY=1;exitDx=0;exitDy=0;entryX=0.5;entryY=0;entryDx=0;entryDy=0;fontFamily=メイリオ;" parent="5ZsLxz6eY7mTCzfrgvc2-3" source="DKEezsGEi6YGIOhxBoTS-10" target="DKEezsGEi6YGIOhxBoTS-14" edge="1">
          <mxGeometry relative="1" as="geometry" />
        </mxCell>
        <mxCell id="DKEezsGEi6YGIOhxBoTS-10" value="案件情報更新" style="rounded=0;whiteSpace=wrap;html=1;fillColor=#E6E6E6;fontFamily=メイリオ;" parent="5ZsLxz6eY7mTCzfrgvc2-3" vertex="1">
          <mxGeometry x="130" y="1170" width="120" height="60" as="geometry" />
        </mxCell>
        <mxCell id="DKEezsGEi6YGIOhxBoTS-12" value="&lt;font color=&quot;#ffffff&quot;&gt;&lt;span style=&quot;font-size: 18px;&quot;&gt;&lt;b&gt;案件&lt;/b&gt;&lt;/span&gt;&lt;/font&gt;" style="shape=cylinder3;whiteSpace=wrap;html=1;boundedLbl=1;backgroundOutline=1;size=15;fillColor=#007FFF;fontFamily=メイリオ;" parent="5ZsLxz6eY7mTCzfrgvc2-3" vertex="1">
          <mxGeometry x="-10" y="1230" width="110" height="70" as="geometry" />
        </mxCell>
        <mxCell id="DKEezsGEi6YGIOhxBoTS-14" value="終了" style="ellipse;whiteSpace=wrap;html=1;fontFamily=メイリオ;" parent="5ZsLxz6eY7mTCzfrgvc2-3" vertex="1">
          <mxGeometry x="130" y="1340" width="120" height="70" as="geometry" />
        </mxCell>
        <mxCell id="DKEezsGEi6YGIOhxBoTS-22" value="Yes" style="edgeStyle=orthogonalEdgeStyle;rounded=0;orthogonalLoop=1;jettySize=auto;html=1;exitX=0.5;exitY=1;exitDx=0;exitDy=0;entryX=0.5;entryY=0;entryDx=0;entryDy=0;fontFamily=メイリオ;" parent="5ZsLxz6eY7mTCzfrgvc2-3" source="DKEezsGEi6YGIOhxBoTS-19" target="DKEezsGEi6YGIOhxBoTS-23" edge="1">
          <mxGeometry x="-0.3793" relative="1" as="geometry">
            <mxPoint x="106" y="1666" as="targetPoint" />
            <mxPoint as="offset" />
          </mxGeometry>
        </mxCell>
        <mxCell id="DKEezsGEi6YGIOhxBoTS-30" value="No" style="edgeStyle=orthogonalEdgeStyle;rounded=0;orthogonalLoop=1;jettySize=auto;html=1;exitX=1;exitY=0.5;exitDx=0;exitDy=0;entryX=0.5;entryY=0;entryDx=0;entryDy=0;fontFamily=メイリオ;" parent="5ZsLxz6eY7mTCzfrgvc2-3" source="DKEezsGEi6YGIOhxBoTS-19" target="DKEezsGEi6YGIOhxBoTS-29" edge="1">
          <mxGeometry x="-0.9121" relative="1" as="geometry">
            <Array as="points">
              <mxPoint x="340" y="1560" />
              <mxPoint x="340" y="2046" />
              <mxPoint x="190" y="2046" />
            </Array>
            <mxPoint as="offset" />
          </mxGeometry>
        </mxCell>
        <mxCell id="DKEezsGEi6YGIOhxBoTS-19" value="失注" style="rhombus;whiteSpace=wrap;html=1;fillColor=#FFFFCC;fontFamily=メイリオ;" parent="5ZsLxz6eY7mTCzfrgvc2-3" vertex="1">
          <mxGeometry x="130" y="1520" width="120" height="80" as="geometry" />
        </mxCell>
        <mxCell id="DKEezsGEi6YGIOhxBoTS-25" style="edgeStyle=orthogonalEdgeStyle;rounded=0;orthogonalLoop=1;jettySize=auto;html=1;exitX=0;exitY=0.5;exitDx=0;exitDy=0;entryX=0.5;entryY=0;entryDx=0;entryDy=0;entryPerimeter=0;dashed=1;fontFamily=メイリオ;" parent="5ZsLxz6eY7mTCzfrgvc2-3" source="DKEezsGEi6YGIOhxBoTS-23" target="DKEezsGEi6YGIOhxBoTS-24" edge="1">
          <mxGeometry relative="1" as="geometry" />
        </mxCell>
        <mxCell id="DKEezsGEi6YGIOhxBoTS-28" style="edgeStyle=orthogonalEdgeStyle;rounded=0;orthogonalLoop=1;jettySize=auto;html=1;exitX=0.5;exitY=1;exitDx=0;exitDy=0;entryX=0.5;entryY=0;entryDx=0;entryDy=0;fontFamily=メイリオ;" parent="5ZsLxz6eY7mTCzfrgvc2-3" source="DKEezsGEi6YGIOhxBoTS-23" target="DKEezsGEi6YGIOhxBoTS-27" edge="1">
          <mxGeometry relative="1" as="geometry" />
        </mxCell>
        <mxCell id="DKEezsGEi6YGIOhxBoTS-23" value="案件情報更新" style="rounded=0;whiteSpace=wrap;html=1;fillColor=#E6E6E6;fontFamily=メイリオ;" parent="5ZsLxz6eY7mTCzfrgvc2-3" vertex="1">
          <mxGeometry x="130" y="1716" width="120" height="60" as="geometry" />
        </mxCell>
        <mxCell id="DKEezsGEi6YGIOhxBoTS-24" value="&lt;font color=&quot;#ffffff&quot;&gt;&lt;span style=&quot;font-size: 18px;&quot;&gt;&lt;b&gt;案件&lt;/b&gt;&lt;/span&gt;&lt;/font&gt;" style="shape=cylinder3;whiteSpace=wrap;html=1;boundedLbl=1;backgroundOutline=1;size=15;fillColor=#007FFF;fontFamily=メイリオ;" parent="5ZsLxz6eY7mTCzfrgvc2-3" vertex="1">
          <mxGeometry x="-10" y="1796" width="110" height="70" as="geometry" />
        </mxCell>
        <mxCell id="DKEezsGEi6YGIOhxBoTS-27" value="失注" style="ellipse;whiteSpace=wrap;html=1;fontFamily=メイリオ;" parent="5ZsLxz6eY7mTCzfrgvc2-3" vertex="1">
          <mxGeometry x="130" y="1906" width="120" height="70" as="geometry" />
        </mxCell>
        <mxCell id="DKEezsGEi6YGIOhxBoTS-32" style="edgeStyle=orthogonalEdgeStyle;rounded=0;orthogonalLoop=1;jettySize=auto;html=1;exitX=0;exitY=0.5;exitDx=0;exitDy=0;entryX=0.5;entryY=0;entryDx=0;entryDy=0;entryPerimeter=0;dashed=1;fontFamily=メイリオ;" parent="5ZsLxz6eY7mTCzfrgvc2-3" source="DKEezsGEi6YGIOhxBoTS-29" target="DKEezsGEi6YGIOhxBoTS-31" edge="1">
          <mxGeometry relative="1" as="geometry" />
        </mxCell>
        <mxCell id="DKEezsGEi6YGIOhxBoTS-34" style="edgeStyle=orthogonalEdgeStyle;rounded=0;orthogonalLoop=1;jettySize=auto;html=1;exitX=0.5;exitY=1;exitDx=0;exitDy=0;entryX=0.5;entryY=0;entryDx=0;entryDy=0;fontFamily=メイリオ;" parent="5ZsLxz6eY7mTCzfrgvc2-3" source="DKEezsGEi6YGIOhxBoTS-29" target="DKEezsGEi6YGIOhxBoTS-33" edge="1">
          <mxGeometry relative="1" as="geometry" />
        </mxCell>
        <mxCell id="DKEezsGEi6YGIOhxBoTS-29" value="提案金額&lt;br&gt;変更取り消し" style="rounded=0;whiteSpace=wrap;html=1;fillColor=#E6E6E6;fontFamily=メイリオ;" parent="5ZsLxz6eY7mTCzfrgvc2-3" vertex="1">
          <mxGeometry x="130" y="2093" width="120" height="60" as="geometry" />
        </mxCell>
        <mxCell id="DKEezsGEi6YGIOhxBoTS-31" value="&lt;font color=&quot;#ffffff&quot;&gt;&lt;span style=&quot;font-size: 18px;&quot;&gt;&lt;b&gt;見積&lt;/b&gt;&lt;/span&gt;&lt;/font&gt;" style="shape=cylinder3;whiteSpace=wrap;html=1;boundedLbl=1;backgroundOutline=1;size=15;fillColor=#007FFF;fontFamily=メイリオ;" parent="5ZsLxz6eY7mTCzfrgvc2-3" vertex="1">
          <mxGeometry x="-10" y="2183" width="110" height="70" as="geometry" />
        </mxCell>
        <mxCell id="DKEezsGEi6YGIOhxBoTS-36" style="edgeStyle=orthogonalEdgeStyle;rounded=0;orthogonalLoop=1;jettySize=auto;html=1;exitX=0;exitY=0.5;exitDx=0;exitDy=0;entryX=0.5;entryY=0;entryDx=0;entryDy=0;entryPerimeter=0;dashed=1;fontFamily=メイリオ;" parent="5ZsLxz6eY7mTCzfrgvc2-3" source="DKEezsGEi6YGIOhxBoTS-33" target="DKEezsGEi6YGIOhxBoTS-35" edge="1">
          <mxGeometry relative="1" as="geometry" />
        </mxCell>
        <mxCell id="DKEezsGEi6YGIOhxBoTS-38" style="edgeStyle=orthogonalEdgeStyle;rounded=0;orthogonalLoop=1;jettySize=auto;html=1;exitX=0.5;exitY=1;exitDx=0;exitDy=0;entryX=0.5;entryY=0;entryDx=0;entryDy=0;fontFamily=メイリオ;" parent="5ZsLxz6eY7mTCzfrgvc2-3" source="DKEezsGEi6YGIOhxBoTS-33" target="DKEezsGEi6YGIOhxBoTS-37" edge="1">
          <mxGeometry relative="1" as="geometry" />
        </mxCell>
        <mxCell id="DKEezsGEi6YGIOhxBoTS-33" value="案件情報更新" style="rounded=0;whiteSpace=wrap;html=1;fillColor=#E6E6E6;fontFamily=メイリオ;" parent="5ZsLxz6eY7mTCzfrgvc2-3" vertex="1">
          <mxGeometry x="130" y="2337" width="120" height="60" as="geometry" />
        </mxCell>
        <mxCell id="DKEezsGEi6YGIOhxBoTS-35" value="&lt;font color=&quot;#ffffff&quot;&gt;&lt;span style=&quot;font-size: 18px;&quot;&gt;&lt;b&gt;案件&lt;/b&gt;&lt;/span&gt;&lt;/font&gt;" style="shape=cylinder3;whiteSpace=wrap;html=1;boundedLbl=1;backgroundOutline=1;size=15;fillColor=#007FFF;fontFamily=メイリオ;" parent="5ZsLxz6eY7mTCzfrgvc2-3" vertex="1">
          <mxGeometry x="-10" y="2397" width="110" height="70" as="geometry" />
        </mxCell>
        <mxCell id="DKEezsGEi6YGIOhxBoTS-37" value="終了" style="ellipse;whiteSpace=wrap;html=1;fontFamily=メイリオ;" parent="5ZsLxz6eY7mTCzfrgvc2-3" vertex="1">
          <mxGeometry x="135" y="2497" width="110" height="70" as="geometry" />
        </mxCell>
        <mxCell id="i-0OtGba0ojmxpHckMT0-6" value="ステータス＝提案中" style="shape=callout;whiteSpace=wrap;html=1;perimeter=calloutPerimeter;direction=north;fontFamily=メイリオ;" vertex="1" parent="5ZsLxz6eY7mTCzfrgvc2-3">
          <mxGeometry x="-150" y="2407" width="160" height="60" as="geometry" />
        </mxCell>
        <mxCell id="5ZsLxz6eY7mTCzfrgvc2-4" value="営業本部上長" style="swimlane;startSize=40;html=1;fontFamily=メイリオ;" parent="5ZsLxz6eY7mTCzfrgvc2-1" vertex="1">
          <mxGeometry x="540" y="20" width="260" height="2870" as="geometry" />
        </mxCell>
        <mxCell id="DKEezsGEi6YGIOhxBoTS-16" value="提案金額承認" style="rhombus;whiteSpace=wrap;html=1;fillColor=#FFFFCC;fontFamily=メイリオ;" parent="5ZsLxz6eY7mTCzfrgvc2-4" vertex="1">
          <mxGeometry x="70" y="700" width="120" height="80" as="geometry" />
        </mxCell>
        <mxCell id="DKEezsGEi6YGIOhxBoTS-17" value="No" style="edgeStyle=orthogonalEdgeStyle;rounded=0;orthogonalLoop=1;jettySize=auto;html=1;exitX=1;exitY=0.5;exitDx=0;exitDy=0;entryX=0;entryY=0.5;entryDx=0;entryDy=0;fontFamily=メイリオ;" parent="5ZsLxz6eY7mTCzfrgvc2-1" source="DKEezsGEi6YGIOhxBoTS-3" target="DKEezsGEi6YGIOhxBoTS-16" edge="1">
          <mxGeometry relative="1" as="geometry" />
        </mxCell>
        <mxCell id="DKEezsGEi6YGIOhxBoTS-18" value="Yes" style="edgeStyle=orthogonalEdgeStyle;rounded=0;orthogonalLoop=1;jettySize=auto;html=1;exitX=0.5;exitY=1;exitDx=0;exitDy=0;entryX=1;entryY=0.5;entryDx=0;entryDy=0;fontFamily=メイリオ;" parent="5ZsLxz6eY7mTCzfrgvc2-1" source="DKEezsGEi6YGIOhxBoTS-16" target="DKEezsGEi6YGIOhxBoTS-5" edge="1">
          <mxGeometry x="-0.7391" relative="1" as="geometry">
            <mxPoint as="offset" />
          </mxGeometry>
        </mxCell>
        <mxCell id="DKEezsGEi6YGIOhxBoTS-20" value="No" style="edgeStyle=orthogonalEdgeStyle;rounded=0;orthogonalLoop=1;jettySize=auto;html=1;exitX=1;exitY=0.5;exitDx=0;exitDy=0;entryX=0.5;entryY=0;entryDx=0;entryDy=0;fontFamily=メイリオ;" parent="5ZsLxz6eY7mTCzfrgvc2-1" source="DKEezsGEi6YGIOhxBoTS-16" target="DKEezsGEi6YGIOhxBoTS-19" edge="1">
          <mxGeometry x="-0.8049" relative="1" as="geometry">
            <Array as="points">
              <mxPoint x="770" y="760" />
              <mxPoint x="770" y="1500" />
              <mxPoint x="350" y="1500" />
            </Array>
            <mxPoint as="offset" />
          </mxGeometry>
        </mxCell>
        <mxCell id="i-0OtGba0ojmxpHckMT0-1" value="金額＝変更後提案金額" style="shape=callout;whiteSpace=wrap;html=1;perimeter=calloutPerimeter;position2=0.36;direction=north;fontFamily=メイリオ;" vertex="1" parent="1">
          <mxGeometry x="24" y="-146" width="160" height="60" as="geometry" />
        </mxCell>
        <mxCell id="i-0OtGba0ojmxpHckMT0-2" value="ステータス＝提案中" style="shape=callout;whiteSpace=wrap;html=1;perimeter=calloutPerimeter;position2=0.36;direction=north;base=10;fontFamily=メイリオ;" vertex="1" parent="1">
          <mxGeometry x="24" y="114" width="150" height="40" as="geometry" />
        </mxCell>
        <mxCell id="i-0OtGba0ojmxpHckMT0-5" value="金額＝変更前提案金額" style="shape=callout;whiteSpace=wrap;html=1;perimeter=calloutPerimeter;direction=north;fontFamily=メイリオ;" vertex="1" parent="1">
          <mxGeometry x="24" y="1057" width="160" height="60" as="geometry" />
        </mxCell>
      </root>
    </mxGraphModel>
  </diagram>
  <diagram id="dDyimD24jCjhRqus-62W" name="再提案">
    <mxGraphModel dx="584" dy="1929" grid="1" gridSize="10" guides="1" tooltips="1" connect="1" arrows="1" fold="1" page="1" pageScale="1" pageWidth="827" pageHeight="1169" math="0" shadow="0">
      <root>
        <mxCell id="0" />
        <mxCell id="1" parent="0" />
        <mxCell id="x-rmQaR-g8VEzOz27R-A-1" value="5. 再提案" style="swimlane;childLayout=stackLayout;resizeParent=1;resizeParentMax=0;startSize=20;html=1;fontFamily=メイリオ;" parent="1" vertex="1">
          <mxGeometry x="129" y="-1150" width="570" height="1930" as="geometry" />
        </mxCell>
        <mxCell id="x-rmQaR-g8VEzOz27R-A-2" value="顧客" style="swimlane;startSize=40;html=1;fontFamily=メイリオ;" parent="x-rmQaR-g8VEzOz27R-A-1" vertex="1">
          <mxGeometry y="20" width="190" height="1910" as="geometry" />
        </mxCell>
        <mxCell id="yZKR_X1jc1LAPye0Qz4H-2" style="edgeStyle=orthogonalEdgeStyle;rounded=0;orthogonalLoop=1;jettySize=auto;html=1;exitX=0.5;exitY=1;exitDx=0;exitDy=0;entryX=0.5;entryY=0;entryDx=0;entryDy=0;fontFamily=メイリオ;" parent="x-rmQaR-g8VEzOz27R-A-2" source="85sIrTEe8sM3ZKhgTOOK-1" target="yZKR_X1jc1LAPye0Qz4H-1" edge="1">
          <mxGeometry relative="1" as="geometry" />
        </mxCell>
        <mxCell id="85sIrTEe8sM3ZKhgTOOK-1" value="再提案対応" style="rounded=0;whiteSpace=wrap;html=1;fillColor=#E6E6E6;fontFamily=メイリオ;" parent="x-rmQaR-g8VEzOz27R-A-2" vertex="1">
          <mxGeometry x="39.5" y="170" width="115" height="50" as="geometry" />
        </mxCell>
        <mxCell id="erD1qlGg5PPzsjHNzVT0-5" value="Yes" style="edgeStyle=orthogonalEdgeStyle;rounded=0;orthogonalLoop=1;jettySize=auto;html=1;exitX=0.5;exitY=1;exitDx=0;exitDy=0;fontFamily=メイリオ;" edge="1" parent="x-rmQaR-g8VEzOz27R-A-2" source="yZKR_X1jc1LAPye0Qz4H-1" target="erD1qlGg5PPzsjHNzVT0-4">
          <mxGeometry relative="1" as="geometry" />
        </mxCell>
        <mxCell id="yZKR_X1jc1LAPye0Qz4H-1" value="再提案&lt;br&gt;受け入れ" style="rhombus;whiteSpace=wrap;html=1;fillColor=#FFFFCC;fontFamily=メイリオ;" parent="x-rmQaR-g8VEzOz27R-A-2" vertex="1">
          <mxGeometry x="37" y="290" width="120" height="80" as="geometry" />
        </mxCell>
        <mxCell id="erD1qlGg5PPzsjHNzVT0-4" value="契約" style="rounded=0;whiteSpace=wrap;html=1;fillColor=#E6E6E6;fontFamily=メイリオ;" vertex="1" parent="x-rmQaR-g8VEzOz27R-A-2">
          <mxGeometry x="39.5" y="440" width="115" height="50" as="geometry" />
        </mxCell>
        <mxCell id="x-rmQaR-g8VEzOz27R-A-3" value="営業本部&lt;br&gt;（事業会社部・SIer部）" style="swimlane;startSize=40;html=1;fontFamily=メイリオ;" parent="x-rmQaR-g8VEzOz27R-A-1" vertex="1">
          <mxGeometry x="190" y="20" width="380" height="1910" as="geometry" />
        </mxCell>
        <mxCell id="yZKR_X1jc1LAPye0Qz4H-6" style="edgeStyle=orthogonalEdgeStyle;rounded=0;orthogonalLoop=1;jettySize=auto;html=1;exitX=0.5;exitY=1;exitDx=0;exitDy=0;entryX=0.5;entryY=0;entryDx=0;entryDy=0;fontFamily=メイリオ;" parent="x-rmQaR-g8VEzOz27R-A-3" source="yZKR_X1jc1LAPye0Qz4H-3" target="yZKR_X1jc1LAPye0Qz4H-5" edge="1">
          <mxGeometry relative="1" as="geometry" />
        </mxCell>
        <mxCell id="yZKR_X1jc1LAPye0Qz4H-3" value="案件クローズ" style="rounded=0;whiteSpace=wrap;html=1;fillColor=#E6E6E6;fontFamily=メイリオ;" parent="x-rmQaR-g8VEzOz27R-A-3" vertex="1">
          <mxGeometry x="174.5" y="837" width="115" height="50" as="geometry" />
        </mxCell>
        <mxCell id="Yu9LRz5KDQGPQBL5RrTW-2" style="edgeStyle=orthogonalEdgeStyle;rounded=0;orthogonalLoop=1;jettySize=auto;html=1;exitX=0;exitY=0.5;exitDx=0;exitDy=0;entryX=0.5;entryY=0;entryDx=0;entryDy=0;entryPerimeter=0;dashed=1;fontFamily=メイリオ;" parent="x-rmQaR-g8VEzOz27R-A-3" source="yZKR_X1jc1LAPye0Qz4H-5" target="Yu9LRz5KDQGPQBL5RrTW-1" edge="1">
          <mxGeometry relative="1" as="geometry" />
        </mxCell>
        <mxCell id="erD1qlGg5PPzsjHNzVT0-3" style="edgeStyle=orthogonalEdgeStyle;rounded=0;orthogonalLoop=1;jettySize=auto;html=1;exitX=0.5;exitY=1;exitDx=0;exitDy=0;entryX=0.5;entryY=0;entryDx=0;entryDy=0;fontFamily=メイリオ;" edge="1" parent="x-rmQaR-g8VEzOz27R-A-3" source="yZKR_X1jc1LAPye0Qz4H-5" target="erD1qlGg5PPzsjHNzVT0-2">
          <mxGeometry relative="1" as="geometry" />
        </mxCell>
        <mxCell id="yZKR_X1jc1LAPye0Qz4H-5" value="案件・契約情報更新" style="rounded=0;whiteSpace=wrap;html=1;fillColor=#E6E6E6;fontFamily=メイリオ;" parent="x-rmQaR-g8VEzOz27R-A-3" vertex="1">
          <mxGeometry x="174.5" y="942" width="115" height="50" as="geometry" />
        </mxCell>
        <mxCell id="Yu9LRz5KDQGPQBL5RrTW-1" value="&lt;font color=&quot;#ffffff&quot;&gt;&lt;span style=&quot;font-size: 18px;&quot;&gt;&lt;b&gt;案件&lt;/b&gt;&lt;/span&gt;&lt;/font&gt;" style="shape=cylinder3;whiteSpace=wrap;html=1;boundedLbl=1;backgroundOutline=1;size=15;fillColor=#007FFF;fontFamily=メイリオ;" parent="x-rmQaR-g8VEzOz27R-A-3" vertex="1">
          <mxGeometry x="64.5" y="1012" width="110" height="70" as="geometry" />
        </mxCell>
        <mxCell id="erD1qlGg5PPzsjHNzVT0-2" value="失注" style="ellipse;whiteSpace=wrap;html=1;fontFamily=メイリオ;" vertex="1" parent="x-rmQaR-g8VEzOz27R-A-3">
          <mxGeometry x="178" y="1102" width="107.5" height="60" as="geometry" />
        </mxCell>
        <mxCell id="ONgEV3Z8_QpC4IvxPFh9-1" value="Yes" style="edgeStyle=orthogonalEdgeStyle;rounded=0;orthogonalLoop=1;jettySize=auto;html=1;exitX=0.5;exitY=1;exitDx=0;exitDy=0;entryX=0.5;entryY=0;entryDx=0;entryDy=0;fontFamily=メイリオ;" edge="1" parent="x-rmQaR-g8VEzOz27R-A-3" source="ZUCPezYNI9x5ekxdaamQ-1" target="SqTyAqFLd8u4kymEijCR-1">
          <mxGeometry relative="1" as="geometry" />
        </mxCell>
        <mxCell id="hFY5W6fJ3OMnxibYZmcH-1" style="edgeStyle=orthogonalEdgeStyle;rounded=0;orthogonalLoop=1;jettySize=auto;html=1;exitX=1;exitY=0.5;exitDx=0;exitDy=0;entryX=0.5;entryY=0;entryDx=0;entryDy=0;fontFamily=メイリオ;" edge="1" parent="x-rmQaR-g8VEzOz27R-A-3" source="ZUCPezYNI9x5ekxdaamQ-1" target="yZKR_X1jc1LAPye0Qz4H-3">
          <mxGeometry relative="1" as="geometry">
            <Array as="points">
              <mxPoint x="343" y="330" />
              <mxPoint x="343" y="750" />
              <mxPoint x="232" y="750" />
            </Array>
          </mxGeometry>
        </mxCell>
        <mxCell id="ZUCPezYNI9x5ekxdaamQ-1" value="再提案" style="rhombus;whiteSpace=wrap;html=1;fillColor=#FFFFCC;fontFamily=メイリオ;" vertex="1" parent="x-rmQaR-g8VEzOz27R-A-3">
          <mxGeometry x="172" y="290" width="120" height="80" as="geometry" />
        </mxCell>
        <mxCell id="ZUCPezYNI9x5ekxdaamQ-3" value="3. 提案交渉" style="shape=offPageConnector;whiteSpace=wrap;html=1;fillColor=#E5CCFF;fontFamily=メイリオ;" vertex="1" parent="x-rmQaR-g8VEzOz27R-A-3">
          <mxGeometry x="192" y="642" width="80" height="68" as="geometry" />
        </mxCell>
        <mxCell id="ONgEV3Z8_QpC4IvxPFh9-4" style="edgeStyle=orthogonalEdgeStyle;rounded=0;orthogonalLoop=1;jettySize=auto;html=1;exitX=0;exitY=0.5;exitDx=0;exitDy=0;entryX=0.5;entryY=0;entryDx=0;entryDy=0;entryPerimeter=0;dashed=1;fontFamily=メイリオ;" edge="1" parent="x-rmQaR-g8VEzOz27R-A-3" source="SqTyAqFLd8u4kymEijCR-1" target="ONgEV3Z8_QpC4IvxPFh9-3">
          <mxGeometry relative="1" as="geometry" />
        </mxCell>
        <mxCell id="ONgEV3Z8_QpC4IvxPFh9-10" style="edgeStyle=orthogonalEdgeStyle;rounded=0;orthogonalLoop=1;jettySize=auto;html=1;exitX=0.5;exitY=1;exitDx=0;exitDy=0;entryX=0.5;entryY=0;entryDx=0;entryDy=0;fontFamily=メイリオ;" edge="1" parent="x-rmQaR-g8VEzOz27R-A-3" source="SqTyAqFLd8u4kymEijCR-1" target="ONgEV3Z8_QpC4IvxPFh9-2">
          <mxGeometry relative="1" as="geometry" />
        </mxCell>
        <mxCell id="SqTyAqFLd8u4kymEijCR-1" value="提案金額&lt;br&gt;変更取り消し" style="rounded=0;whiteSpace=wrap;html=1;fillColor=#E6E6E6;fontFamily=メイリオ;" vertex="1" parent="x-rmQaR-g8VEzOz27R-A-3">
          <mxGeometry x="174.5" y="420" width="115" height="50" as="geometry" />
        </mxCell>
        <mxCell id="ONgEV3Z8_QpC4IvxPFh9-6" style="edgeStyle=orthogonalEdgeStyle;rounded=0;orthogonalLoop=1;jettySize=auto;html=1;exitX=0;exitY=0.5;exitDx=0;exitDy=0;entryX=0.5;entryY=0;entryDx=0;entryDy=0;entryPerimeter=0;dashed=1;fontFamily=メイリオ;" edge="1" parent="x-rmQaR-g8VEzOz27R-A-3" source="ONgEV3Z8_QpC4IvxPFh9-2" target="ONgEV3Z8_QpC4IvxPFh9-5">
          <mxGeometry relative="1" as="geometry" />
        </mxCell>
        <mxCell id="ONgEV3Z8_QpC4IvxPFh9-8" style="edgeStyle=orthogonalEdgeStyle;rounded=0;orthogonalLoop=1;jettySize=auto;html=1;exitX=0.5;exitY=1;exitDx=0;exitDy=0;entryX=0.5;entryY=0;entryDx=0;entryDy=0;fontFamily=メイリオ;" edge="1" parent="x-rmQaR-g8VEzOz27R-A-3" source="ONgEV3Z8_QpC4IvxPFh9-2" target="ZUCPezYNI9x5ekxdaamQ-3">
          <mxGeometry relative="1" as="geometry" />
        </mxCell>
        <mxCell id="ONgEV3Z8_QpC4IvxPFh9-2" value="案件情報更新" style="rounded=0;whiteSpace=wrap;html=1;fillColor=#E6E6E6;fontFamily=メイリオ;" vertex="1" parent="x-rmQaR-g8VEzOz27R-A-3">
          <mxGeometry x="174.5" y="537" width="115" height="50" as="geometry" />
        </mxCell>
        <mxCell id="ONgEV3Z8_QpC4IvxPFh9-3" value="&lt;font color=&quot;#ffffff&quot;&gt;&lt;span style=&quot;font-size: 18px;&quot;&gt;&lt;b&gt;見積&lt;/b&gt;&lt;/span&gt;&lt;/font&gt;" style="shape=cylinder3;whiteSpace=wrap;html=1;boundedLbl=1;backgroundOutline=1;size=15;fillColor=#007FFF;fontFamily=メイリオ;" vertex="1" parent="x-rmQaR-g8VEzOz27R-A-3">
          <mxGeometry x="53" y="470" width="110" height="70" as="geometry" />
        </mxCell>
        <mxCell id="ONgEV3Z8_QpC4IvxPFh9-5" value="&lt;font color=&quot;#ffffff&quot;&gt;&lt;span style=&quot;font-size: 18px;&quot;&gt;&lt;b&gt;案件&lt;/b&gt;&lt;/span&gt;&lt;/font&gt;" style="shape=cylinder3;whiteSpace=wrap;html=1;boundedLbl=1;backgroundOutline=1;size=15;fillColor=#007FFF;fontFamily=メイリオ;" vertex="1" parent="x-rmQaR-g8VEzOz27R-A-3">
          <mxGeometry x="53" y="583" width="110" height="70" as="geometry" />
        </mxCell>
        <mxCell id="erD1qlGg5PPzsjHNzVT0-6" value="案件情報更新" style="rounded=0;whiteSpace=wrap;html=1;fillColor=#E6E6E6;fontFamily=メイリオ;" vertex="1" parent="x-rmQaR-g8VEzOz27R-A-3">
          <mxGeometry x="170.5" y="1310" width="115" height="50" as="geometry" />
        </mxCell>
        <mxCell id="erD1qlGg5PPzsjHNzVT0-8" value="&lt;font color=&quot;#ffffff&quot;&gt;&lt;span style=&quot;font-size: 18px;&quot;&gt;&lt;b&gt;案件&lt;/b&gt;&lt;/span&gt;&lt;/font&gt;" style="shape=cylinder3;whiteSpace=wrap;html=1;boundedLbl=1;backgroundOutline=1;size=15;fillColor=#007FFF;fontFamily=メイリオ;" vertex="1" parent="x-rmQaR-g8VEzOz27R-A-3">
          <mxGeometry x="60.5" y="1380" width="110" height="70" as="geometry" />
        </mxCell>
        <mxCell id="erD1qlGg5PPzsjHNzVT0-9" style="edgeStyle=orthogonalEdgeStyle;rounded=0;orthogonalLoop=1;jettySize=auto;html=1;exitX=0;exitY=0.75;exitDx=0;exitDy=0;entryX=0.5;entryY=0;entryDx=0;entryDy=0;entryPerimeter=0;dashed=1;fontFamily=メイリオ;" edge="1" parent="x-rmQaR-g8VEzOz27R-A-3" source="erD1qlGg5PPzsjHNzVT0-6" target="erD1qlGg5PPzsjHNzVT0-8">
          <mxGeometry relative="1" as="geometry" />
        </mxCell>
        <mxCell id="erD1qlGg5PPzsjHNzVT0-10" value="新規情報新規作成" style="rounded=0;whiteSpace=wrap;html=1;fillColor=#E6E6E6;fontFamily=メイリオ;" vertex="1" parent="x-rmQaR-g8VEzOz27R-A-3">
          <mxGeometry x="170.5" y="1500" width="115" height="50" as="geometry" />
        </mxCell>
        <mxCell id="erD1qlGg5PPzsjHNzVT0-11" style="edgeStyle=orthogonalEdgeStyle;rounded=0;orthogonalLoop=1;jettySize=auto;html=1;exitX=0.5;exitY=1;exitDx=0;exitDy=0;entryX=0.5;entryY=0;entryDx=0;entryDy=0;fontFamily=メイリオ;" edge="1" parent="x-rmQaR-g8VEzOz27R-A-3" source="erD1qlGg5PPzsjHNzVT0-6" target="erD1qlGg5PPzsjHNzVT0-10">
          <mxGeometry relative="1" as="geometry" />
        </mxCell>
        <mxCell id="erD1qlGg5PPzsjHNzVT0-12" value="&lt;font color=&quot;#ffffff&quot;&gt;&lt;span style=&quot;font-size: 18px;&quot;&gt;&lt;b&gt;契約&lt;/b&gt;&lt;/span&gt;&lt;/font&gt;" style="shape=cylinder3;whiteSpace=wrap;html=1;boundedLbl=1;backgroundOutline=1;size=15;fillColor=#007FFF;fontFamily=メイリオ;" vertex="1" parent="x-rmQaR-g8VEzOz27R-A-3">
          <mxGeometry x="60.5" y="1560" width="110" height="70" as="geometry" />
        </mxCell>
        <mxCell id="erD1qlGg5PPzsjHNzVT0-13" style="edgeStyle=orthogonalEdgeStyle;rounded=0;orthogonalLoop=1;jettySize=auto;html=1;exitX=0;exitY=0.5;exitDx=0;exitDy=0;entryX=0.5;entryY=0;entryDx=0;entryDy=0;entryPerimeter=0;dashed=1;fontFamily=メイリオ;" edge="1" parent="x-rmQaR-g8VEzOz27R-A-3" source="erD1qlGg5PPzsjHNzVT0-10" target="erD1qlGg5PPzsjHNzVT0-12">
          <mxGeometry relative="1" as="geometry" />
        </mxCell>
        <mxCell id="erD1qlGg5PPzsjHNzVT0-14" value="要員情報更新" style="rounded=0;whiteSpace=wrap;html=1;fillColor=#E6E6E6;fontFamily=メイリオ;" vertex="1" parent="x-rmQaR-g8VEzOz27R-A-3">
          <mxGeometry x="170.5" y="1650" width="115" height="50" as="geometry" />
        </mxCell>
        <mxCell id="erD1qlGg5PPzsjHNzVT0-15" style="edgeStyle=orthogonalEdgeStyle;rounded=0;orthogonalLoop=1;jettySize=auto;html=1;exitX=0.5;exitY=1;exitDx=0;exitDy=0;entryX=0.5;entryY=0;entryDx=0;entryDy=0;fontFamily=メイリオ;" edge="1" parent="x-rmQaR-g8VEzOz27R-A-3" source="erD1qlGg5PPzsjHNzVT0-10" target="erD1qlGg5PPzsjHNzVT0-14">
          <mxGeometry relative="1" as="geometry" />
        </mxCell>
        <mxCell id="erD1qlGg5PPzsjHNzVT0-16" value="&lt;font color=&quot;#ffffff&quot;&gt;&lt;span style=&quot;font-size: 18px;&quot;&gt;&lt;b&gt;要員&lt;/b&gt;&lt;/span&gt;&lt;/font&gt;" style="shape=cylinder3;whiteSpace=wrap;html=1;boundedLbl=1;backgroundOutline=1;size=15;fillColor=#007FFF;fontFamily=メイリオ;" vertex="1" parent="x-rmQaR-g8VEzOz27R-A-3">
          <mxGeometry x="60.5" y="1700" width="110" height="70" as="geometry" />
        </mxCell>
        <mxCell id="erD1qlGg5PPzsjHNzVT0-17" style="edgeStyle=orthogonalEdgeStyle;rounded=0;orthogonalLoop=1;jettySize=auto;html=1;exitX=0;exitY=0.5;exitDx=0;exitDy=0;entryX=0.5;entryY=0;entryDx=0;entryDy=0;entryPerimeter=0;dashed=1;fontFamily=メイリオ;" edge="1" parent="x-rmQaR-g8VEzOz27R-A-3" source="erD1qlGg5PPzsjHNzVT0-14" target="erD1qlGg5PPzsjHNzVT0-16">
          <mxGeometry relative="1" as="geometry" />
        </mxCell>
        <mxCell id="erD1qlGg5PPzsjHNzVT0-18" value="終了" style="ellipse;whiteSpace=wrap;html=1;fontFamily=メイリオ;" vertex="1" parent="x-rmQaR-g8VEzOz27R-A-3">
          <mxGeometry x="170.5" y="1940" width="113.75" height="50" as="geometry" />
        </mxCell>
        <mxCell id="rKlAA0_T6GFhGvSeESmp-3" value="ステータス＝受注" style="shape=callout;whiteSpace=wrap;html=1;perimeter=calloutPerimeter;direction=west;base=35;position2=0;size=25;position=0.15;fontFamily=メイリオ;" vertex="1" parent="x-rmQaR-g8VEzOz27R-A-3">
          <mxGeometry x="-79.5" y="1410" width="140" height="80" as="geometry" />
        </mxCell>
        <mxCell id="rKlAA0_T6GFhGvSeESmp-4" value="&lt;div style=&quot;border-color: var(--border-color);&quot;&gt;・クライアント&lt;/div&gt;&lt;div style=&quot;border-color: var(--border-color);&quot;&gt;&lt;span style=&quot;border-color: var(--border-color); background-color: initial;&quot;&gt;・契約名&lt;/span&gt;&lt;/div&gt;&lt;div style=&quot;border-color: var(--border-color);&quot;&gt;&lt;span style=&quot;border-color: var(--border-color); background-color: initial;&quot;&gt;・契約概要&lt;/span&gt;&lt;/div&gt;&lt;div style=&quot;border-color: var(--border-color);&quot;&gt;&lt;span style=&quot;border-color: var(--border-color); background-color: initial;&quot;&gt;・要員数&lt;/span&gt;&lt;/div&gt;&lt;div style=&quot;border-color: var(--border-color);&quot;&gt;&lt;span style=&quot;border-color: var(--border-color); background-color: initial;&quot;&gt;・スキル&lt;/span&gt;&lt;/div&gt;&lt;div style=&quot;border-color: var(--border-color);&quot;&gt;&lt;span style=&quot;border-color: var(--border-color); background-color: initial;&quot;&gt;・期間&lt;/span&gt;&lt;/div&gt;&lt;div style=&quot;border-color: var(--border-color);&quot;&gt;&lt;span style=&quot;border-color: var(--border-color); background-color: initial;&quot;&gt;・ステータス&lt;/span&gt;&lt;/div&gt;&lt;div style=&quot;border-color: var(--border-color);&quot;&gt;&lt;span style=&quot;border-color: var(--border-color); background-color: initial;&quot;&gt;・備考&lt;/span&gt;&lt;/div&gt;" style="shape=callout;whiteSpace=wrap;html=1;perimeter=calloutPerimeter;direction=north;base=11;position2=0.5;size=22;position=0.71;align=left;fontFamily=メイリオ;" vertex="1" parent="x-rmQaR-g8VEzOz27R-A-3">
          <mxGeometry x="-79.5" y="1510" width="150" height="140" as="geometry" />
        </mxCell>
        <mxCell id="8VbKcCWE66kN-y7Qn4Mm-1" value="&lt;div style=&quot;border-color: var(--border-color);&quot;&gt;・クライアント&lt;/div&gt;&lt;div style=&quot;border-color: var(--border-color);&quot;&gt;&lt;span style=&quot;border-color: var(--border-color); background-color: initial;&quot;&gt;・契約名&lt;/span&gt;&lt;/div&gt;&lt;div style=&quot;border-color: var(--border-color);&quot;&gt;&lt;span style=&quot;border-color: var(--border-color); background-color: initial;&quot;&gt;・期間From&lt;/span&gt;&lt;/div&gt;&lt;div style=&quot;border-color: var(--border-color);&quot;&gt;&lt;span style=&quot;border-color: var(--border-color); background-color: initial;&quot;&gt;・期間To&lt;/span&gt;&lt;/div&gt;&lt;div style=&quot;border-color: var(--border-color);&quot;&gt;&lt;span style=&quot;border-color: var(--border-color); background-color: initial;&quot;&gt;・人月&lt;/span&gt;&lt;/div&gt;&lt;div style=&quot;border-color: var(--border-color);&quot;&gt;&lt;span style=&quot;border-color: var(--border-color); background-color: initial;&quot;&gt;・単価&lt;/span&gt;&lt;/div&gt;&lt;div style=&quot;border-color: var(--border-color);&quot;&gt;&lt;span style=&quot;border-color: var(--border-color); background-color: initial;&quot;&gt;・売上&lt;/span&gt;&lt;/div&gt;&lt;div style=&quot;border-color: var(--border-color);&quot;&gt;&lt;span style=&quot;border-color: var(--border-color); background-color: initial;&quot;&gt;・利益&lt;/span&gt;&lt;/div&gt;" style="shape=callout;whiteSpace=wrap;html=1;perimeter=calloutPerimeter;direction=north;base=11;position2=0.5;size=22;position=0.71;align=left;fontFamily=メイリオ;" vertex="1" parent="x-rmQaR-g8VEzOz27R-A-3">
          <mxGeometry x="-79.5" y="1665" width="150" height="140" as="geometry" />
        </mxCell>
        <mxCell id="8VbKcCWE66kN-y7Qn4Mm-4" style="edgeStyle=orthogonalEdgeStyle;rounded=0;orthogonalLoop=1;jettySize=auto;html=1;exitX=0.5;exitY=1;exitDx=0;exitDy=0;entryX=0.5;entryY=0;entryDx=0;entryDy=0;fontFamily=メイリオ;" edge="1" parent="x-rmQaR-g8VEzOz27R-A-3" source="8VbKcCWE66kN-y7Qn4Mm-2" target="erD1qlGg5PPzsjHNzVT0-18">
          <mxGeometry relative="1" as="geometry" />
        </mxCell>
        <mxCell id="8VbKcCWE66kN-y7Qn4Mm-2" value="システム部へ報告" style="rounded=0;whiteSpace=wrap;html=1;fillColor=#E6E6E6;fontFamily=メイリオ;" vertex="1" parent="x-rmQaR-g8VEzOz27R-A-3">
          <mxGeometry x="170.5" y="1820" width="115" height="50" as="geometry" />
        </mxCell>
        <mxCell id="8VbKcCWE66kN-y7Qn4Mm-3" style="edgeStyle=orthogonalEdgeStyle;rounded=0;orthogonalLoop=1;jettySize=auto;html=1;exitX=0.5;exitY=1;exitDx=0;exitDy=0;entryX=0.5;entryY=0;entryDx=0;entryDy=0;fontFamily=メイリオ;" edge="1" parent="x-rmQaR-g8VEzOz27R-A-3" source="erD1qlGg5PPzsjHNzVT0-14" target="8VbKcCWE66kN-y7Qn4Mm-2">
          <mxGeometry relative="1" as="geometry" />
        </mxCell>
        <mxCell id="ytb9p3LBqnflt9y3yJip-1" value="再提案" style="rounded=0;whiteSpace=wrap;html=1;fillColor=#E6E6E6;fontFamily=メイリオ;" vertex="1" parent="x-rmQaR-g8VEzOz27R-A-3">
          <mxGeometry x="174.5" y="170" width="115" height="50" as="geometry" />
        </mxCell>
        <mxCell id="ytb9p3LBqnflt9y3yJip-4" style="edgeStyle=orthogonalEdgeStyle;rounded=0;orthogonalLoop=1;jettySize=auto;html=1;exitX=0.5;exitY=1;exitDx=0;exitDy=0;entryX=0.5;entryY=0;entryDx=0;entryDy=0;" edge="1" parent="x-rmQaR-g8VEzOz27R-A-3" source="ytb9p3LBqnflt9y3yJip-3" target="ytb9p3LBqnflt9y3yJip-1">
          <mxGeometry relative="1" as="geometry" />
        </mxCell>
        <mxCell id="ytb9p3LBqnflt9y3yJip-3" value="開始" style="ellipse;whiteSpace=wrap;html=1;" vertex="1" parent="x-rmQaR-g8VEzOz27R-A-3">
          <mxGeometry x="177" y="50" width="110" height="70" as="geometry" />
        </mxCell>
        <mxCell id="yZKR_X1jc1LAPye0Qz4H-4" value="No" style="edgeStyle=orthogonalEdgeStyle;rounded=0;orthogonalLoop=1;jettySize=auto;html=1;exitX=1;exitY=0.5;exitDx=0;exitDy=0;entryX=0;entryY=0.5;entryDx=0;entryDy=0;fontFamily=メイリオ;" parent="x-rmQaR-g8VEzOz27R-A-1" source="yZKR_X1jc1LAPye0Qz4H-1" target="ZUCPezYNI9x5ekxdaamQ-1" edge="1">
          <mxGeometry x="-0.6426" relative="1" as="geometry">
            <mxPoint as="offset" />
            <mxPoint x="267.0000000000002" y="350" as="sourcePoint" />
            <mxPoint x="384" y="360" as="targetPoint" />
            <Array as="points" />
          </mxGeometry>
        </mxCell>
        <mxCell id="erD1qlGg5PPzsjHNzVT0-7" style="edgeStyle=orthogonalEdgeStyle;rounded=0;orthogonalLoop=1;jettySize=auto;html=1;exitX=0.5;exitY=1;exitDx=0;exitDy=0;entryX=0;entryY=0.5;entryDx=0;entryDy=0;fontFamily=メイリオ;" edge="1" parent="x-rmQaR-g8VEzOz27R-A-1" source="erD1qlGg5PPzsjHNzVT0-4" target="erD1qlGg5PPzsjHNzVT0-6">
          <mxGeometry relative="1" as="geometry" />
        </mxCell>
        <mxCell id="ytb9p3LBqnflt9y3yJip-2" style="edgeStyle=orthogonalEdgeStyle;rounded=0;orthogonalLoop=1;jettySize=auto;html=1;exitX=0;exitY=0.5;exitDx=0;exitDy=0;entryX=1;entryY=0.5;entryDx=0;entryDy=0;" edge="1" parent="x-rmQaR-g8VEzOz27R-A-1" source="ytb9p3LBqnflt9y3yJip-1" target="85sIrTEe8sM3ZKhgTOOK-1">
          <mxGeometry relative="1" as="geometry" />
        </mxCell>
        <mxCell id="rKlAA0_T6GFhGvSeESmp-1" value="ステータス＝失注" style="shape=callout;whiteSpace=wrap;html=1;perimeter=calloutPerimeter;direction=west;base=35;position2=0;size=25;position=0.15;fontFamily=メイリオ;" vertex="1" parent="1">
          <mxGeometry x="242" y="-78" width="140" height="80" as="geometry" />
        </mxCell>
      </root>
    </mxGraphModel>
  </diagram>
</mxfile>
